<?xml version="1.0" encoding="utf-8"?>
<!-- Generator: Adobe Illustrator 16.0.4, SVG Export Plug-In . SVG Version: 6.00 Build 0)  -->
<!DOCTYPE svg PUBLIC "-//W3C//DTD SVG 1.1//EN" "http://www.w3.org/Graphics/SVG/1.1/DTD/svg11.dtd">
<svg version="1.1" id="Layer_1" xmlns="http://www.w3.org/2000/svg" xmlns:xlink="http://www.w3.org/1999/xlink" x="0px" y="0px"
	 width="1736.36px" height="573px" viewBox="0 0 1736.36 573" enable-background="new 0 0 1736.36 573" xml:space="preserve">
<polyline fill="#006DB6" points="1526.469,455.91 1547.04,455.91 1547.04,455.91 1547.049,457.28 1547.09,458.62 1547.151,459.94 
	1547.241,461.23 1547.37,462.49 1547.549,463.74 1547.77,464.95 1548.03,466.15 1548.35,467.31 1548.719,468.44 1549.151,469.54 
	1549.651,470.62 1550.219,471.67 1550.85,472.67 1551.561,473.66 1552.35,474.61 1553.139,475.47 1553.92,476.27 1554.69,477 
	1555.481,477.69 1556.27,478.31 1557.061,478.88 1557.889,479.39 1558.719,479.83 1559.59,480.23 1560.469,480.57 1561.389,480.85 
	1562.36,481.09 1563.34,481.26 1564.389,481.4 1565.469,481.47 1566.629,481.5 1567.481,481.49 1568.34,481.44 1569.209,481.38 
	1570.04,481.28 1570.879,481.15 1571.719,480.98 1572.54,480.78 1573.35,480.53 1574.161,480.24 1574.959,479.91 1575.75,479.53 
	1576.52,479.09 1577.299,478.62 1578.061,478.08 1578.811,477.49 1579.549,476.83 1580.26,476.13 1580.93,475.43 1581.53,474.71 
	1582.081,473.98 1582.59,473.25 1583.03,472.48 1583.44,471.72 1583.79,470.95 1584.12,470.17 1584.379,469.38 1584.59,468.58 
	1584.78,467.78 1584.901,466.97 1584.981,466.16 1585.04,465.35 1585.04,464.53 1585.02,463.63 1584.969,462.77 1584.889,461.93 
	1584.78,461.12 1584.661,460.32 1584.481,459.54 1584.28,458.77 1584.049,458.04 1583.78,457.32 1583.481,456.6 1583.151,455.93 
	1582.76,455.23 1582.331,454.58 1581.85,453.92 1581.331,453.27 1580.79,452.63 1580.18,452.01 1579.53,451.4 1578.84,450.81 
	1578.09,450.24 1577.311,449.67 1576.459,449.12 1575.549,448.57 1574.59,448.04 1573.561,447.5 1572.491,446.97 1571.35,446.45 
	1570.129,445.92 1568.85,445.39 1567.5,444.88 1566.071,444.34 1564.571,443.8 1562.161,442.93 1559.86,442.05 1557.651,441.18 
	1555.51,440.28 1553.491,439.39 1551.571,438.5 1549.77,437.59 1548.04,436.7 1546.45,435.79 1544.94,434.88 1543.561,433.98 
	1542.28,433.08 1541.139,432.17 1540.081,431.27 1539.161,430.38 1538.35,429.48 1537.62,428.55 1536.889,427.54 1536.231,426.45 
	1535.571,425.32 1534.969,424.11 1534.401,422.85 1533.86,421.54 1533.389,420.19 1532.959,418.79 1532.581,417.38 1532.241,415.93 
	1531.959,414.46 1531.75,412.96 1531.581,411.47 1531.491,409.96 1531.45,408.46 1531.491,406.75 1531.651,405.05 1531.889,403.35 
	1532.209,401.65 1532.661,399.96 1533.161,398.29 1533.77,396.65 1534.44,395.02 1535.19,393.439 1536.04,391.88 1536.94,390.37 
	1537.92,388.91 1538.959,387.5 1540.081,386.15 1541.25,384.87 1542.459,383.641 1543.76,382.49 1545.12,381.41 1546.53,380.37 
	1548,379.41 1549.54,378.5 1551.1,377.67 1552.731,376.91 1554.37,376.221 1556.081,375.609 1557.79,375.061 1559.53,374.6 
	1561.29,374.221 1563.061,373.92 1564.86,373.7 1566.639,373.57 1568.42,373.52 1570.321,373.561 1572.18,373.68 1574.04,373.87 
	1575.86,374.141 1577.661,374.48 1579.43,374.891 1581.151,375.37 1582.821,375.92 1584.44,376.529 1586.01,377.2 1587.53,377.939 
	1588.981,378.74 1590.36,379.59 1591.67,380.51 1592.93,381.48 1594.081,382.5 1595.561,383.99 1596.92,385.52 1598.139,387.09 
	1599.25,388.689 1600.219,390.34 1601.1,392.02 1601.86,393.73 1602.52,395.48 1603.1,397.25 1603.561,399.06 1603.959,400.87 
	1604.26,402.72 1604.481,404.6 1604.651,406.49 1604.76,410.33 1583.639,410.33 1583.639,410.33 1583.639,409.3 1583.59,408.27 
	1583.5,407.25 1583.35,406.23 1583.18,405.22 1582.95,404.25 1582.68,403.3 1582.389,402.37 1582.03,401.48 1581.639,400.62 
	1581.2,399.81 1580.719,399.04 1580.2,398.33 1579.639,397.66 1579.04,397.06 1578.401,396.52 1577.741,396.04 1577.081,395.609 
	1576.42,395.21 1575.76,394.84 1575.081,394.52 1574.411,394.24 1573.741,393.98 1573.061,393.77 1572.379,393.58 1571.67,393.43 
	1571,393.3 1570.311,393.2 1569.59,393.12 1568.879,393.061 1568.18,393.029 1567.469,393.02 1566.741,393.04 1565.991,393.1 
	1565.241,393.189 1564.491,393.311 1563.731,393.471 1562.981,393.66 1562.241,393.88 1561.53,394.141 1560.821,394.43 
	1560.12,394.75 1559.459,395.1 1558.831,395.48 1558.219,395.88 1557.661,396.31 1557.139,396.77 1556.67,397.26 1556.241,397.77 
	1555.821,398.28 1555.411,398.79 1555.02,399.33 1554.651,399.87 1554.299,400.44 1553.981,401.02 1553.709,401.63 1553.45,402.26 
	1553.209,402.92 1552.991,403.62 1552.84,404.34 1552.7,405.1 1552.6,405.91 1552.549,406.75 1552.53,407.63 1552.53,408.26 
	1552.549,408.86 1552.571,409.42 1552.62,409.94 1552.68,410.45 1552.741,410.93 1552.821,411.4 1552.94,411.84 1553.049,412.27 
	1553.19,412.7 1553.34,413.12 1553.491,413.54 1553.7,413.95 1553.889,414.37 1554.12,414.79 1554.37,415.22 1554.61,415.65 
	1554.879,416.06 1555.139,416.44 1555.411,416.8 1555.69,417.15 1555.969,417.48 1556.28,417.8 1556.62,418.12 1556.959,418.44 
	1557.331,418.74 1557.731,419.05 1558.151,419.37 1558.62,419.68 1559.11,420.01 1559.639,420.34 1560.209,420.69 1560.75,421.01 
	1561.299,421.33 1561.86,421.64 1562.45,421.94 1563.049,422.23 1563.68,422.52 1564.331,422.82 1565,423.1 1565.719,423.39 
	1566.459,423.67 1567.231,423.95 1568.061,424.24 1568.92,424.53 1569.831,424.81 1570.78,425.12 1571.79,425.41 1572.811,425.72 
	1573.79,426 1574.731,426.29 1575.67,426.55 1576.561,426.82 1577.401,427.07 1578.231,427.31 1579,427.56 1579.741,427.78 
	1580.43,427.99 1581.071,428.2 1581.661,428.39 1582.2,428.58 1582.709,428.75 1583.151,428.91 1583.52,429.07 1584.87,429.66 
	1586.241,430.28 1587.54,430.95 1588.811,431.64 1590.061,432.36 1591.26,433.13 1592.42,433.91 1593.549,434.71 1594.62,435.55 
	1595.661,436.41 1596.62,437.28 1597.54,438.17 1598.43,439.1 1599.219,440.03 1599.969,440.97 1600.661,441.92 1601.299,442.93 
	1601.92,444 1602.5,445.13 1603.049,446.31 1603.561,447.55 1604.049,448.85 1604.481,450.18 1604.87,451.54 1605.25,452.94 
	1605.561,454.38 1605.84,455.83 1606.061,457.31 1606.25,458.79 1606.379,460.28 1606.45,461.78 1606.5,463.27 1606.43,465.14 
	1606.29,467 1606.03,468.85 1605.69,470.69 1605.26,472.51 1604.741,474.3 1604.129,476.07 1603.42,477.79 1602.639,479.48 
	1601.77,481.12 1600.85,482.72 1599.831,484.25 1598.719,485.73 1597.581,487.14 1596.34,488.48 1595.04,489.75 1593.69,490.94 
	1592.241,492.07 1590.709,493.13 1589.12,494.14 1587.459,495.06 1585.741,495.93 1583.969,496.72 1582.161,497.42 1580.27,498.07 
	1578.389,498.63 1576.43,499.11 1574.469,499.51 1572.481,499.82 1570.459,500.04 1568.42,500.18 1566.389,500.23 1564.311,500.18 
	1562.231,500.03 1560.161,499.78 1558.129,499.43 1556.1,498.98 1554.12,498.45 1552.161,497.83 1550.27,497.11 1548.43,496.32 
	1546.651,495.44 1544.93,494.47 1543.28,493.44 1541.709,492.32 1540.25,491.12 1538.86,489.85 1537.59,488.52 1535.889,486.54 
	1534.36,484.56 1533.01,482.6 1531.811,480.65 1530.77,478.7 1529.86,476.75 1529.09,474.79 1528.42,472.81 1527.879,470.82 
	1527.45,468.79 1527.1,466.75 1526.84,464.67 1526.661,462.56 1526.53,460.39 1526.469,455.91 "/>
<polygon fill="#006DB6" points="1502.78,395.63 1524.84,395.63 1524.84,374.98 1502.78,374.98 1502.78,333.68 1481.09,333.68 
	1481.09,497.46 1502.78,497.46 "/>
<path fill="#006DB6" d="M1383.45,384.17v-9.189h-20.66V497.46h21.68v-65.5l0.012-1.17l0.059-1.521l0.051-1.439l0.061-1.36l0.08-1.29
	l0.08-1.22l0.078-1.14l0.092-1.08l0.109-1.021l0.119-0.95l0.111-0.89l0.148-0.83l0.121-0.78l0.141-0.75l0.148-0.71l0.16-0.68
	l0.16-0.67l0.16-0.63l0.18-0.62l0.191-0.61l0.189-0.579l0.23-0.58l0.229-0.57l0.24-0.57l0.26-0.56l0.271-0.561l0.309-0.569
	l0.32-0.57l0.34-0.59l0.561-0.92l0.551-0.851l0.559-0.8l0.551-0.76l0.57-0.69l0.58-0.67l0.58-0.63l0.629-0.6l0.631-0.57l0.68-0.55
	l0.709-0.53l0.75-0.52l0.791-0.5l0.83-0.5l0.879-0.5l0.951-0.511l0.939-0.479l0.881-0.45l0.83-0.41l0.818-0.38l0.791-0.33
	l0.801-0.31l0.818-0.27l0.852-0.24l0.898-0.211l0.951-0.17l1.049-0.149l1.131-0.12l1.24-0.09l1.369-0.061l1.52-0.039l1.65-0.011
	l1.75,0.021l1.711,0.07l1.68,0.109l1.641,0.17l1.609,0.221l1.561,0.289l1.539,0.34l1.48,0.42l1.439,0.49l1.381,0.561l1.34,0.649
	l1.279,0.73l1.221,0.819l1.16,0.91l1.109,1.011l1.029,1.109l0.971,1.181l0.881,1.22l0.799,1.27l0.73,1.33l0.68,1.391l0.59,1.46
	l0.51,1.54l0.48,1.609l0.41,1.7l0.34,1.81l0.27,1.9l0.23,2l0.17,2.13l0.131,2.25l0.061,2.36l0.02,0.24v70.51h21.66
	c0,0,0-76.811-0.021-76.86l-0.09-1.609l-0.129-1.54l-0.121-1.48l-0.148-1.42l-0.17-1.351l-0.16-1.289l-0.201-1.221l-0.209-1.14
	l-0.221-1.08l-0.23-1.06l-0.27-1.08l-0.289-1.08l-0.291-1.08l-0.359-1.07l-0.361-1.08l-0.369-1.069l-0.391-1.051l-0.42-1.029
	l-0.439-1.011l-0.459-0.989l-0.461-0.96l-0.471-0.92l-0.488-0.891l-0.5-0.84l-0.512-0.8l-0.77-1.101l-0.83-1.1l-0.889-1.09
	l-0.961-1.08l-1-1.07l-1.061-1.05l-1.09-1.021l-1.129-0.989l-1.182-0.96l-1.199-0.92l-1.221-0.881l-1.238-0.84l-1.25-0.789
	l-1.281-0.74l-1.27-0.68l-1.291-0.631l-1.289-0.58l-1.35-0.55l-1.391-0.521l-1.459-0.489l-1.48-0.45l-1.531-0.43l-1.549-0.381
	l-1.57-0.35l-1.631-0.31l-1.609-0.271l-1.629-0.24l-1.641-0.189l-1.65-0.15l-1.641-0.119l-1.66-0.061l-1.629-0.029l-1.49,0.02
	l-1.471,0.05l-1.5,0.09l-1.5,0.12l-1.488,0.16l-1.48,0.18l-1.451,0.221l-1.459,0.25l-1.43,0.279l-1.42,0.311l-1.371,0.33
	l-1.35,0.369l-1.301,0.4l-1.27,0.41L1397,376l-1.189,0.471l-1.08,0.439l-0.951,0.39l-0.84,0.351l-0.75,0.31l-0.68,0.3l-0.619,0.29
	l-0.561,0.29l-0.551,0.301l-0.539,0.33l-0.541,0.359l-0.549,0.4l-0.611,0.459l-0.66,0.53l-0.729,0.61l-0.82,0.699L1383.45,384.17z"
	/>
<path fill="#006DB6" d="M1326.799,470.77l-1.988,1.471l-2.051,1.399l-2.131,1.341l-2.16,1.25l-2.219,1.159l-2.211,1.061l-2.26,0.939
	l-2.26,0.801l-2.26,0.68l-2.23,0.5l-2.219,0.35l-2.16,0.17l-2.102-0.02l-1.469-0.05l-1.461-0.09l-1.479-0.131l-1.471-0.199
	l-1.49-0.24l-1.51-0.32l-1.529-0.39l-1.551-0.47l-1.57-0.57l-1.641-0.65l-1.639-0.75l-1.701-0.88l-1.75-0.979l-1.779-1.12
	l-1.85-1.24l-1.99-1.44l79.93-70.67l-2.051-2.399l-2.42-2.62l-2.59-2.62l-2.779-2.59l-2.961-2.53l-3.129-2.46l-3.32-2.351
	l-3.48-2.199l-3.629-2.051l-3.83-1.85l-3.971-1.64l-4.139-1.39l-4.281-1.121l-4.439-0.819l-4.6-0.5l-3.09-0.12l-3.08,0.04
	l-3.09,0.21l-3.09,0.38l-3.08,0.55l-3.061,0.711l-3.041,0.869l-3.01,1.021l-2.979,1.18l-2.922,1.34l-2.869,1.49l-2.811,1.64
	l-2.74,1.78l-2.67,1.931l-2.568,2.069l-2.49,2.21l-2.441,2.38l-2.299,2.48l-2.189,2.58l-2.07,2.659l-1.92,2.74l-1.801,2.83
	l-1.66,2.86l-1.52,2.93l-1.359,2.99l-1.221,3.02l-1.051,3.04l-0.9,3.08l-0.719,3.09l-0.57,3.101l-0.391,3.09l-0.219,3.07
	l-0.051,3.069l0.121,3.07l0.289,3.08l0.449,3.06l0.59,3.061l0.762,3.029l0.91,3l1.059,2.96l1.221,2.931l1.35,2.88l1.5,2.83
	l1.65,2.76l1.779,2.71l1.92,2.63l2.051,2.54l2.199,2.47l2.221,2.25l2.34,2.15l2.439,2.04l2.561,1.92l2.65,1.8l2.74,1.681l2.809,1.54
	l2.9,1.409l2.951,1.28l3.01,1.141l3.061,1l3.1,0.84l3.129,0.7l3.131,0.54l3.17,0.369l3.18,0.21l2.311,0.03l2.35-0.07l2.41-0.17
	l2.42-0.26l2.439-0.36l2.461-0.43l2.449-0.52l2.439-0.601l2.41-0.649l2.371-0.73l2.33-0.78l2.26-0.829l2.209-0.881l2.141-0.92
	l2.041-0.97v-26.63l-1.541,1.3L1326.799,470.77z M1258.821,455.64l-0.951-1.819l-0.83-1.761l-0.729-1.699l-0.631-1.65l-0.52-1.6
	l-0.43-1.57l-0.342-1.53l-0.26-1.51l-0.209-1.49l-0.131-1.49l-0.07-1.489l-0.02-1.471l0.02-1.51l0.061-1.54l0.1-1.54l0.16-1.819
	l0.24-1.78l0.33-1.72l0.4-1.671l0.48-1.64l0.57-1.58l0.67-1.56l0.738-1.521l0.852-1.51l0.92-1.48l1.029-1.47l1.109-1.46l1.23-1.46
	l1.311-1.439l1.41-1.46l1.539-1.46l1.701-1.53l1.689-1.42l1.721-1.32l1.729-1.21l1.711-1.11l1.719-1.01l1.691-0.91l1.67-0.81
	l1.67-0.71l1.65-0.601l1.609-0.52l1.59-0.42l1.529-0.31l1.5-0.221l1.471-0.12l1.41-0.04l1.85,0.04l1.73,0.05l1.629,0.09L1299.7,395
	l1.5,0.17l1.451,0.24l1.43,0.29l1.439,0.359l1.449,0.45l1.48,0.53l1.52,0.61l1.611,0.71l1.699,0.829l1.791,0.931l1.93,1.06
	l2.07,1.17L1258.821,455.64z"/>
<polygon fill="#006DB6" points="1043.401,497.46 1065.071,497.46 1065.071,436.74 1065.071,435.08 1065.09,433.49 1065.11,431.99 
	1065.129,430.57 1065.161,429.2 1065.19,427.93 1065.241,426.72 1065.299,425.57 1065.35,424.49 1065.401,423.45 1065.469,422.47 
	1065.54,421.56 1065.6,420.69 1065.68,419.86 1065.75,419.08 1065.831,418.36 1065.901,417.63 1065.991,416.9 1066.071,416.17 
	1066.161,415.44 1066.25,414.71 1066.36,413.99 1066.481,413.27 1066.62,412.56 1066.75,411.85 1066.93,411.16 1067.12,410.48 
	1067.331,409.81 1067.561,409.15 1067.821,408.52 1068.11,407.91 1068.59,406.96 1069.081,406.07 1069.581,405.22 1070.09,404.42 
	1070.61,403.66 1071.129,402.95 1071.69,402.25 1072.27,401.6 1072.87,400.97 1073.51,400.36 1074.17,399.78 1074.879,399.22 
	1075.62,398.67 1076.401,398.13 1077.231,397.61 1078.12,397.09 1079.04,396.58 1079.969,396.11 1080.911,395.67 1081.84,395.27 
	1082.79,394.891 1083.76,394.561 1084.731,394.26 1085.719,393.98 1086.731,393.75 1087.77,393.54 1088.831,393.37 1089.901,393.23 
	1091.01,393.12 1092.161,393.04 1093.331,393 1094.53,392.98 1096.481,393.02 1098.29,393.15 1099.991,393.35 1101.571,393.62 
	1103.02,393.98 1104.411,394.43 1105.7,394.939 1106.92,395.52 1108.071,396.19 1109.18,396.92 1110.219,397.73 1111.25,398.61 
	1112.241,399.56 1113.209,400.58 1114.18,401.67 1115.151,402.83 1116.09,404.03 1116.959,405.27 1117.76,406.56 1118.481,407.88 
	1119.139,409.27 1119.741,410.71 1120.25,412.21 1120.709,413.79 1121.11,415.46 1121.459,417.2 1121.75,419.05 1121.969,421 
	1122.151,423.06 1122.26,425.23 1122.331,427.55 1122.321,429.98 1122.321,497.46 1144.01,497.46 1144.01,429.98 1144.049,428.7 
	1144.09,427.34 1144.151,426.05 1144.231,424.82 1144.299,423.67 1144.401,422.59 1144.491,421.57 1144.61,420.61 1144.719,419.71 
	1144.85,418.88 1144.981,418.09 1145.12,417.35 1145.27,416.65 1145.401,415.98 1145.549,415.34 1145.7,414.72 1145.86,414.12 
	1146.03,413.55 1146.209,412.99 1146.389,412.43 1146.59,411.9 1146.811,411.37 1147.04,410.82 1147.29,410.27 1147.561,409.72 
	1147.85,409.15 1148.161,408.57 1148.68,407.65 1149.17,406.78 1149.67,405.95 1150.151,405.16 1150.639,404.41 1151.129,403.7 
	1151.651,403.03 1152.17,402.38 1152.709,401.77 1153.28,401.17 1153.901,400.6 1154.549,400.04 1155.26,399.51 1156.03,398.98 
	1156.831,398.46 1157.7,397.95 1158.61,397.47 1159.491,397 1160.36,396.57 1161.219,396.15 1162.081,395.779 1162.93,395.43 
	1163.799,395.109 1164.68,394.82 1165.571,394.57 1166.481,394.35 1167.43,394.17 1168.389,394.02 1169.389,393.891 1170.44,393.82 
	1171.53,393.779 1172.67,393.779 1173.87,393.83 1175.17,393.93 1176.51,394.09 1177.889,394.311 1179.331,394.59 1180.78,394.95 
	1182.25,395.37 1183.709,395.859 1185.151,396.42 1186.571,397.08 1187.94,397.79 1189.25,398.61 1190.51,399.51 1191.68,400.49 
	1192.75,401.57 1193.731,402.74 1194.6,403.99 1195.379,405.29 1196.1,406.68 1196.741,408.13 1197.311,409.67 1197.799,411.28 
	1198.25,412.98 1198.639,414.79 1198.969,416.68 1199.25,418.69 1199.491,420.82 1199.68,423.05 1199.84,425.42 1199.969,427.92 
	1200.061,430.55 1200.139,433.32 1200.139,497.46 1221.799,497.46 1221.799,433.32 1221.77,428.81 1221.549,425.13 1221.241,421.55 
	1220.831,418.06 1220.34,414.66 1219.741,411.39 1219.081,408.24 1218.321,405.21 1217.481,402.32 1216.581,399.58 1215.59,397 
	1214.52,394.59 1213.401,392.34 1212.2,390.27 1210.93,388.4 1209.549,386.67 1208.01,385.01 1206.311,383.439 1204.44,381.971 
	1202.459,380.58 1200.34,379.29 1198.12,378.1 1195.76,377.02 1193.34,376.05 1190.799,375.189 1188.219,374.46 1185.54,373.84 
	1182.821,373.359 1180.04,373.01 1177.241,372.79 1174.411,372.73 1172.831,372.75 1171.231,372.83 1169.62,372.96 1168,373.13 
	1166.379,373.35 1164.75,373.62 1163.139,373.92 1161.549,374.27 1159.959,374.67 1158.411,375.1 1156.879,375.58 1155.37,376.08 
	1153.94,376.62 1152.52,377.189 1151.17,377.8 1149.87,378.439 1148.651,379.09 1147.53,379.71 1146.45,380.311 1145.43,380.92 
	1144.469,381.529 1143.561,382.15 1142.68,382.79 1141.831,383.439 1140.981,384.13 1140.151,384.85 1139.321,385.62 
	1138.469,386.439 1137.62,387.32 1136.741,388.27 1135.821,389.279 1134.86,390.391 1133.29,388.35 1132.52,387.439 1131.78,386.59 
	1131.03,385.8 1130.27,385.05 1129.491,384.35 1128.7,383.67 1127.889,383.02 1127.02,382.391 1126.1,381.77 1125.151,381.16 
	1124.12,380.529 1123.01,379.9 1121.84,379.25 1120.581,378.57 1119.25,377.891 1117.86,377.25 1116.42,376.641 1114.95,376.08 
	1113.44,375.55 1111.889,375.061 1110.321,374.62 1108.731,374.21 1107.12,373.85 1105.491,373.54 1103.86,373.27 1102.219,373.04 
	1100.581,372.87 1098.95,372.75 1097.35,372.67 1095.75,372.641 1094.36,372.66 1092.981,372.71 1091.59,372.811 1090.18,372.93 
	1088.79,373.08 1087.389,373.279 1086,373.49 1084.639,373.75 1083.29,374.04 1081.959,374.35 1080.661,374.7 1079.379,375.061 
	1078.139,375.471 1076.94,375.9 1075.78,376.34 1074.67,376.82 1073.661,377.27 1072.811,377.66 1072.1,377.99 1071.481,378.279 
	1070.959,378.529 1070.5,378.77 1070.09,379.01 1069.709,379.25 1069.331,379.5 1068.94,379.779 1068.51,380.1 1068.02,380.471 
	1067.45,380.91 1066.78,381.42 1065.991,382.01 1065.071,382.7 1065.071,374.98 1043.401,374.98 "/>
<line fill="#006DB6" x1="1008.991" y1="405.87" x2="1008.991" y2="436.75"/>
<polygon fill="#006DB6" points="1008.991,374.98 1030.661,374.98 1030.661,497.46 1008.991,497.46 1008.991,489.26 1008.03,490.09 
	1007.209,490.79 1006.491,491.4 1005.84,491.92 1005.231,492.39 1004.67,492.78 1004.129,493.15 1003.59,493.48 1003.049,493.77 
	1002.481,494.07 1001.86,494.36 1001.19,494.64 1000.43,494.96 999.59,495.32 998.639,495.7 997.549,496.15 996.379,496.61 
	995.151,497.05 993.879,497.47 992.571,497.86 991.231,498.22 989.85,498.56 988.44,498.87 987.01,499.14 985.559,499.39 
	984.081,499.61 982.61,499.79 981.12,499.95 979.629,500.07 978.139,500.16 976.639,500.21 975.151,500.24 973.52,500.21 
	971.879,500.14 970.231,500.04 968.59,499.88 966.94,499.69 965.309,499.46 963.7,499.18 962.081,498.87 960.5,498.53 
	958.959,498.13 957.43,497.71 955.94,497.26 954.491,496.78 953.081,496.26 951.731,495.7 950.42,495.13 949.161,494.5 
	947.87,493.82 946.6,493.08 945.36,492.28 944.1,491.45 942.889,490.56 941.69,489.64 940.52,488.68 939.389,487.68 938.29,486.67 
	937.241,485.62 936.231,484.55 935.27,483.47 934.379,482.37 933.549,481.27 932.77,480.17 932.27,479.37 931.77,478.53 
	931.28,477.64 930.799,476.72 930.35,475.76 929.889,474.77 929.459,473.77 929.049,472.73 928.651,471.67 928.26,470.61 
	927.911,469.53 927.571,468.46 927.26,467.36 926.959,466.29 926.7,465.23 926.459,464.16 926.25,463.08 926.04,461.93 
	925.86,460.71 925.68,459.43 925.52,458.07 925.37,456.66 925.25,455.17 925.12,453.62 925,452.01 924.92,450.34 924.85,448.6 
	924.78,446.82 924.731,444.98 924.731,374.98 946.401,374.98 946.401,444.98 946.651,448.28 946.76,450.51 947,452.65 
	947.27,454.64 947.559,456.55 947.889,458.35 948.29,460.06 948.77,461.67 949.28,463.21 949.879,464.67 950.54,466.05 
	951.29,467.39 952.09,468.67 952.969,469.88 953.95,471.05 954.969,472.17 956.081,473.18 957.241,474.09 958.469,474.91 
	959.76,475.64 961.081,476.28 962.481,476.85 963.92,477.33 965.401,477.76 966.93,478.11 968.5,478.38 970.1,478.61 971.76,478.76 
	973.43,478.89 975.151,478.96 976.879,478.97 978.54,478.96 980.059,478.92 981.43,478.86 982.661,478.76 983.799,478.65 
	984.85,478.51 985.809,478.33 986.709,478.12 987.559,477.89 988.37,477.62 989.17,477.32 989.969,476.98 990.77,476.59 
	991.62,476.19 992.5,475.74 993.43,475.25 994.379,474.75 995.26,474.25 996.1,473.77 996.901,473.25 997.639,472.74 
	998.331,472.21 999.01,471.67 999.651,471.09 1000.27,470.49 1000.86,469.87 1001.44,469.2 1002.01,468.49 1002.571,467.74 
	1003.12,466.95 1003.68,466.09 1004.231,465.18 1004.571,464.59 1004.889,464 1005.19,463.44 1005.469,462.87 1005.731,462.31 
	1005.981,461.74 1006.219,461.18 1006.43,460.6 1006.629,460.01 1006.821,459.41 1007,458.79 1007.161,458.15 1007.331,457.49 
	1007.491,456.8 1007.629,456.09 1007.77,455.35 1007.911,454.56 1008.04,453.72 1008.161,452.84 1008.27,451.88 1008.389,450.88 
	1008.491,449.8 1008.559,448.65 1008.651,447.42 1008.719,446.14 1008.78,444.79 1008.831,443.35 1008.879,441.82 1008.901,440.22 
	1008.94,438.52 1008.991,436.75 "/>
<line fill="#006DB6" x1="859.06" y1="374.98" x2="879.29" y2="374.98"/>
<polygon fill="#006DB6" points="804.71,497.46 826.39,497.46 826.39,395.63 848.45,395.63 848.45,374.98 826.39,374.98 
	826.39,333.68 804.71,333.68 "/>
<path fill="#006DB6" d="M618.75,497.46v-65.5l0.02-1.17l0.051-1.521l0.05-1.439l0.06-1.36l0.07-1.29l0.08-1.22l0.08-1.14l0.09-1.08
	l0.11-1.021l0.12-0.95l0.109-0.89l0.13-0.83l0.141-0.78l0.14-0.75l0.15-0.71l0.16-0.68l0.159-0.67l0.17-0.63l0.181-0.62l0.189-0.61
	l0.2-0.58l0.22-0.579l0.23-0.57l0.25-0.57l0.25-0.56l0.29-0.561l0.29-0.569l0.319-0.57l0.341-0.59l0.55-0.92l0.56-0.851l0.561-0.8
	l0.56-0.76l0.57-0.69l0.58-0.67l0.59-0.63l0.62-0.6l0.64-0.57l0.68-0.55l0.7-0.53l0.75-0.52l0.79-0.5l0.83-0.5l0.89-0.5l0.95-0.511
	l0.94-0.479l0.88-0.45l0.84-0.41l0.811-0.38l0.79-0.33l0.8-0.31l0.819-0.271l0.841-0.239l0.899-0.211l0.96-0.17l1.04-0.149
	l1.141-0.12l1.239-0.09l1.37-0.061l1.51-0.039l1.671-0.011l1.739,0.021l1.71,0.069l1.681,0.11l1.649,0.17l1.61,0.22l1.57,0.29
	l1.529,0.34l1.48,0.42l1.439,0.49l1.391,0.561l1.34,0.649l1.29,0.73l1.22,0.819l1.16,0.91l1.1,1.011l1.04,1.109l0.971,1.181
	l0.88,1.22l0.81,1.27l0.73,1.33l0.67,1.391l0.6,1.46l0.521,1.54l0.47,1.609l0.399,1.7l0.341,1.81l0.279,1.9l0.23,2l0.18,2.13
	l0.12,2.25l0.07,2.36v0.239v70.511h21.68c0,0,0-76.811-0.01-76.86l-0.11-1.609l-0.12-1.54l-0.13-1.48l-0.149-1.42l-0.16-1.351
	l-0.181-1.289l-0.189-1.221l-0.2-1.14l-0.22-1.08l-0.24-1.06l-0.26-1.08l-0.29-1.08l-0.32-1.08l-0.33-1.07l-0.359-1.08l-0.381-1.069
	l-0.399-1.051l-0.42-1.029l-0.42-1.011l-0.46-0.989l-0.471-0.96l-0.479-0.92l-0.49-0.891l-0.49-0.84l-0.52-0.8l-0.76-1.101
	l-0.841-1.1l-0.89-1.09l-0.96-1.08l-1-1.07l-1.06-1.05l-1.091-1.021l-1.14-0.989l-1.17-0.96l-1.2-0.92l-1.22-0.881l-1.24-0.84
	l-1.26-0.789l-1.271-0.74l-1.279-0.68l-1.271-0.631l-1.3-0.58l-1.35-0.55l-1.4-0.521l-1.45-0.489l-1.49-0.45l-1.52-0.43l-1.55-0.381
	l-1.58-0.35l-1.61-0.31l-1.609-0.271l-1.641-0.24l-1.64-0.189l-1.641-0.15l-1.649-0.119l-1.641-0.061l-1.63-0.029l-1.489,0.02
	l-1.49,0.05l-1.49,0.09l-1.5,0.12l-1.479,0.16l-1.49,0.18l-1.47,0.221l-1.45,0.25l-1.431,0.279l-1.409,0.311l-1.37,0.33l-1.34,0.369
	l-1.311,0.4l-1.27,0.41l-1.221,0.439l-1.18,0.471l-1.08,0.439l-0.96,0.391l-0.84,0.35l-0.75,0.311l-0.67,0.3l-0.62,0.29l-0.57,0.289
	l-0.55,0.301l-0.53,0.33l-0.54,0.359l-0.56,0.4l-0.61,0.46l-0.649,0.53l-0.73,0.609l-0.81,0.7l-1.91,1.66v-9.19H597.1V497.5h21.65
	V497.46z"/>
<rect x="562.68" y="333.68" fill="#006DB6" width="21.67" height="26.08"/>
<rect x="562.68" y="374.98" fill="#006DB6" width="21.67" height="122.479"/>
<polyline fill="#006DB6" points="713.68,455.91 734.25,455.91 734.25,455.91 734.27,457.28 734.3,458.62 734.37,459.94 
	734.46,461.23 734.6,462.49 734.77,463.74 734.99,464.95 735.25,466.15 735.57,467.31 735.94,468.44 736.38,469.54 736.87,470.62 
	737.43,471.67 738.07,472.67 738.78,473.66 739.57,474.61 740.36,475.47 741.14,476.27 741.92,477 742.71,477.69 743.49,478.31 
	744.3,478.88 745.11,479.39 745.94,479.83 746.8,480.23 747.69,480.57 748.61,480.85 749.57,481.09 750.57,481.26 751.6,481.4 
	752.7,481.47 753.84,481.5 754.71,481.49 755.57,481.44 756.43,481.38 757.27,481.28 758.11,481.15 758.94,480.98 759.75,480.78 
	760.57,480.53 761.38,480.24 762.17,479.91 762.96,479.53 763.74,479.09 764.51,478.62 765.28,478.08 766.03,477.49 766.77,476.83 
	767.49,476.13 768.15,475.43 768.75,474.71 769.31,473.98 769.81,473.25 770.26,472.48 770.67,471.72 771.02,470.95 771.34,470.17 
	771.6,469.38 771.82,468.58 771.99,467.78 772.13,466.97 772.21,466.16 772.26,465.35 772.27,464.53 772.24,463.63 772.18,462.77 
	772.11,461.93 772.01,461.12 771.88,460.32 771.71,459.54 771.51,458.77 771.27,458.04 771.01,457.32 770.71,456.6 770.36,455.93 
	769.97,455.23 769.55,454.58 769.08,453.92 768.57,453.27 768.01,452.63 767.4,452.01 766.75,451.4 766.05,450.81 765.31,450.24 
	764.52,449.67 763.67,449.12 762.77,448.57 761.81,448.04 760.79,447.5 759.71,446.97 758.57,446.45 757.36,445.92 756.07,445.39 
	754.72,444.88 753.3,444.34 751.8,443.8 749.39,442.93 747.07,442.05 744.86,441.18 742.74,440.28 740.71,439.39 738.8,438.5 
	736.98,437.59 735.26,436.7 733.67,435.79 732.17,434.88 730.78,433.98 729.5,433.08 728.35,432.17 727.3,431.27 726.38,430.38 
	725.56,429.48 724.83,428.55 724.12,427.54 723.44,426.45 722.8,425.32 722.19,424.11 721.62,422.85 721.1,421.54 720.61,420.19 
	720.18,418.79 719.8,417.38 719.46,415.93 719.18,414.46 718.97,412.96 718.8,411.47 718.71,409.96 718.67,408.46 718.72,406.75 
	718.87,405.05 719.11,403.35 719.45,401.65 719.87,399.96 720.39,398.29 720.98,396.65 721.66,395.02 722.42,393.439 723.26,391.88 
	724.16,390.37 725.14,388.91 726.18,387.5 727.28,386.15 728.45,384.87 729.68,383.641 730.98,382.49 732.33,381.41 733.75,380.37 
	735.23,379.41 736.76,378.5 738.34,377.67 739.95,376.91 741.6,376.221 743.3,375.609 745.01,375.061 746.75,374.6 748.51,374.221 
	750.28,373.92 752.07,373.7 753.86,373.57 755.64,373.52 757.53,373.561 759.41,373.68 761.27,373.87 763.09,374.141 764.88,374.48 
	766.65,374.891 768.37,375.37 770.04,375.92 771.67,376.529 773.24,377.2 774.75,377.939 776.21,378.74 777.59,379.59 778.9,380.51 
	780.14,381.48 781.3,382.5 782.79,383.99 784.14,385.52 785.36,387.09 786.46,388.689 787.45,390.34 788.32,392.02 789.08,393.73 
	789.75,395.48 790.31,397.25 790.79,399.06 791.18,400.87 791.48,402.72 791.71,404.6 791.87,406.49 791.97,410.33 770.85,410.33 
	770.85,410.33 770.85,409.3 770.81,408.27 770.72,407.25 770.58,406.23 770.41,405.22 770.18,404.25 769.92,403.3 769.6,402.37 
	769.25,401.48 768.85,400.62 768.42,399.81 767.95,399.04 767.42,398.33 766.87,397.66 766.26,397.06 765.62,396.52 764.96,396.04 
	764.3,395.609 763.64,395.21 762.98,394.84 762.31,394.52 761.63,394.24 760.96,393.98 760.28,393.77 759.6,393.58 758.91,393.43 
	758.22,393.3 757.52,393.2 756.82,393.12 756.11,393.061 755.4,393.029 754.68,393.02 753.96,393.04 753.21,393.1 752.47,393.189 
	751.72,393.311 750.96,393.471 750.21,393.66 749.47,393.88 748.74,394.141 748.04,394.43 747.35,394.75 746.68,395.1 
	746.05,395.48 745.45,395.88 744.89,396.31 744.37,396.77 743.89,397.26 743.46,397.77 743.04,398.28 742.63,398.79 742.24,399.33 
	741.88,399.87 741.54,400.44 741.22,401.02 740.93,401.63 740.66,402.26 740.43,402.92 740.22,403.62 740.05,404.34 739.92,405.1 
	739.83,405.91 739.76,406.75 739.74,407.63 739.75,408.26 739.77,408.86 739.79,409.42 739.83,409.94 739.89,410.45 739.97,410.93 
	740.05,411.4 740.15,411.84 740.27,412.27 740.4,412.7 740.55,413.12 740.72,413.54 740.92,413.95 741.12,414.37 741.34,414.79 
	741.59,415.22 741.84,415.65 742.09,416.06 742.36,416.44 742.62,416.8 742.91,417.15 743.2,417.48 743.51,417.8 743.84,418.12 
	744.18,418.44 744.55,418.74 744.95,419.05 745.37,419.37 745.84,419.68 746.33,420.01 746.85,420.34 747.43,420.69 747.97,421.01 
	748.52,421.33 749.09,421.64 749.67,421.94 750.27,422.23 750.9,422.52 751.55,422.82 752.22,423.1 752.94,423.39 753.68,423.67 
	754.46,423.95 755.28,424.24 756.14,424.53 757.04,424.81 758,425.12 759,425.41 760.02,425.72 761,426 761.96,426.29 
	762.88,426.55 763.78,426.82 764.63,427.07 765.45,427.31 766.22,427.56 766.96,427.78 767.65,427.99 768.29,428.2 768.88,428.39 
	769.42,428.58 769.92,428.75 770.35,428.91 770.73,429.07 772.1,429.66 773.45,430.28 774.76,430.95 776.04,431.64 777.28,432.36 
	778.49,433.13 779.65,433.91 780.77,434.71 781.85,435.55 782.88,436.41 783.85,437.28 784.77,438.17 785.65,439.1 786.45,440.03 
	787.2,440.97 787.88,441.92 788.53,442.93 789.15,444 789.72,445.13 790.27,446.31 790.79,447.55 791.26,448.85 791.7,450.18 
	792.1,451.54 792.46,452.94 792.79,454.38 793.06,455.83 793.29,457.31 793.47,458.79 793.6,460.28 793.67,461.78 793.7,463.27 
	793.65,465.14 793.5,467 793.25,468.85 792.92,470.69 792.48,472.51 791.96,474.3 791.35,476.07 790.65,477.79 789.87,479.48 
	789.01,481.12 788.07,482.72 787.05,484.25 785.95,485.73 784.8,487.14 783.57,488.48 782.27,489.75 780.9,490.94 779.45,492.07 
	777.93,493.13 776.33,494.14 774.68,495.06 772.96,495.93 771.19,496.72 769.37,497.42 767.5,498.07 765.6,498.63 763.66,499.11 
	761.69,499.51 759.7,499.82 757.68,500.04 755.65,500.18 753.62,500.23 751.53,500.18 749.45,500.03 747.39,499.78 745.34,499.43 
	743.32,498.98 741.33,498.45 739.39,497.83 737.49,497.11 735.65,496.32 733.87,495.44 732.15,494.47 730.5,493.44 728.94,492.32 
	727.46,491.12 726.08,489.85 724.81,488.52 723.11,486.54 721.58,484.56 720.23,482.6 719.03,480.65 717.99,478.7 717.08,476.75 
	716.3,474.79 715.64,472.81 715.1,470.82 714.67,468.79 714.32,466.75 714.06,464.67 713.88,462.56 713.76,460.39 713.68,455.91 "/>
<polygon fill="#006DB6" points="696.33,177.52 696.33,73.14 731.12,73.14 731.12,316.7 696.82,316.7 696.33,316.7 696.33,211.47 
	597.47,211.47 597.47,316.7 596.98,316.7 562.68,316.7 562.68,73.14 597.47,73.14 597.47,177.52 "/>
<rect x="528.19" y="73.14" fill="#006DB6" width="4.779" height="424.32"/>
<rect x="512.25" y="73.14" fill="#006DB6" width="4.78" height="424.32"/>
<rect x="496.33" y="73.14" fill="#006DB6" width="4.78" height="424.32"/>
<rect x="480.39" y="73.14" fill="#006DB6" width="4.78" height="424.32"/>
<rect x="464.46" y="73.14" fill="#006DB6" width="4.78" height="424.32"/>
<rect x="448.53" y="73.14" fill="#006DB6" width="4.77" height="424.32"/>
<rect x="432.59" y="73.14" fill="#006DB6" width="4.78" height="424.32"/>
<rect x="416.66" y="73.14" fill="#006DB6" width="4.79" height="424.32"/>
<rect x="241.4" y="73.14" fill="#006DB6" width="4.78" height="424.32"/>
<rect x="225.47" y="73.14" fill="#006DB6" width="4.78" height="424.32"/>
<rect x="209.54" y="73.14" fill="#006DB6" width="4.78" height="424.32"/>
<rect x="193.6" y="73.14" fill="#006DB6" width="4.78" height="424.32"/>
<rect x="177.67" y="73.14" fill="#006DB6" width="4.78" height="424.32"/>
<rect x="161.74" y="73.14" fill="#006DB6" width="4.78" height="424.32"/>
<rect x="145.8" y="73.14" fill="#006DB6" width="4.78" height="424.32"/>
<rect x="129.87" y="73.14" fill="#006DB6" width="4.78" height="424.32"/>
<path fill="#006DB6" d="M257.33,73.14v424.32H405.5V73.14H257.33z M273.26,273.94h-11.15V207.7h11.15V273.94z M289.2,273.94h-11.15
	V207.7h11.15V273.94z M305.14,273.94h-11.15V207.7h11.15V273.94z M321.06,273.94H309.9V207.7h11.159V273.94z M336.99,273.94h-11.15
	V207.7h11.15V273.94z M352.93,273.94H341.78V207.7h11.149V273.94z M368.87,273.94h-11.16V207.7h11.16V273.94z M384.8,273.94h-11.16
	V207.7h11.16V273.94z M400.73,273.94h-11.15V207.7h11.15V273.94z"/>
<path fill="#006DB6" d="M791.24,73.14h-35.25V316.7h34.8v-73.75h76.88l51.639,73.75h42.48L791.24,73.14z M790.79,212.4v-79.24
	l55.479,79.24H790.79z"/>
<polygon fill="#006DB6" points="1125.09,316.7 996.581,133.16 996.581,316.7 961.79,316.7 961.79,73.14 997.03,73.14 
	1125.09,256.04 1125.09,73.14 1159.889,73.14 1159.889,316.7 "/>
<polygon fill="#006DB6" points="1375.831,316.7 1375.831,73.14 1341.03,73.14 1341.03,256.04 1212.969,73.14 1177.719,73.14 
	1177.719,316.7 1212.51,316.7 1212.51,133.16 1341.03,316.7 "/>
<path fill="#006DB6" d="M1435.94,73.14h-35.24V316.7h34.77v-73.75h76.9L1564,316.7h42.49L1435.94,73.14z M1435.481,212.4v-79.24
	l55.5,79.24H1435.481z"/>
<path fill="#006DB6" d="M914.12,393.52v-20.27l-5.879,0.13l-1.051,0.03l-0.99,0.04l-0.959,0.05l-0.941,0.07l-0.898,0.09l-0.92,0.1
	l-0.932,0.131l-0.959,0.159l-0.99,0.2l-1.061,0.23l-1.119,0.27l-1.211,0.3l-1.299,0.37l-1.43,0.41l-1.391,0.54l-1.26,0.521
	l-1.15,0.5l-1.041,0.489l-0.949,0.479l-0.869,0.49l-0.82,0.49l-0.76,0.5l-0.711,0.51l-0.709,0.541l-0.682,0.56l-0.67,0.6
	l-0.709,0.63l-0.721,0.68l-0.76,0.73l-0.58,0.551V375h-20.64v122.48c0,0,21.669,0,21.669,0.01v-72.38l0.182-1.761l0.27-1.729
	l0.35-1.67l0.43-1.61l0.48-1.55l0.57-1.48l0.629-1.43l0.66-1.37l0.721-1.319l0.74-1.271l0.789-1.22l0.811-1.15l0.83-1.1l0.83-1.05
	l0.83-1l0.859-0.94l0.881-0.88l0.93-0.82l0.971-0.77l1.029-0.73l1.07-0.689l1.15-0.641l1.209-0.609l1.27-0.58l1.361-0.57l1.43-0.54
	l1.529-0.52l1.621-0.521l1.719-0.51l1.82-0.52L914.12,393.52z"/>
<g>
	<path fill="#006DB6" d="M1529.35,70.25c16.359,0,29.439,13.31,29.439,29.96c0,16.91-13.07,30.09-29.57,30.09
		c-16.379,0-29.689-13.18-29.689-30.09c0-16.65,13.311-29.96,29.689-29.96H1529.35z M1529.209,74.92
		c-13.17,0-23.969,11.32-23.969,25.3c0,14.24,10.809,25.43,24.109,25.43c13.311,0.13,23.959-11.19,23.959-25.31
		c0-14.1-10.648-25.42-23.959-25.42H1529.209L1529.209,74.92z M1523.62,117.66h-5.34V84.24c2.801-0.41,5.461-0.8,9.48-0.8
		c5.051,0,8.369,1.06,10.359,2.54c2.01,1.46,3.07,3.73,3.07,6.92c0,4.4-2.92,7.06-6.52,8.13v0.27c2.93,0.53,4.92,3.19,5.58,8.12
		c0.83,5.19,1.609,7.19,2.129,8.26h-5.58c-0.789-1.07-1.609-4.14-2.26-8.53c-0.799-4.26-2.93-5.86-7.199-5.86h-3.73L1523.62,117.66
		L1523.62,117.66z M1523.62,99.16h3.861c4.398,0,8.129-1.6,8.129-5.73c0-2.93-2.15-5.86-8.129-5.86c-1.73,0-2.922,0.13-3.861,0.26
		V99.16z"/>
</g>
</svg>
