<?xml version="1.0" encoding="utf-8"?>
<!-- Generator: Adobe Illustrator 16.0.4, SVG Export Plug-In . SVG Version: 6.00 Build 0)  -->
<!DOCTYPE svg PUBLIC "-//W3C//DTD SVG 1.1//EN" "http://www.w3.org/Graphics/SVG/1.1/DTD/svg11.dtd">
<svg version="1.1" id="Layer_1" xmlns="http://www.w3.org/2000/svg" xmlns:xlink="http://www.w3.org/1999/xlink" x="0px" y="0px"
	 viewBox="9.994 0 26.006 36" enable-background="new 9.994 0 26.006 36" xml:space="preserve">
	 
	 <script  language="JavaScript" xlink:href="http://code.jquery.com/jquery-1.9.1.min.js"></script>
	 <script language="JavaScript"> 
	  $('.btn').on('click',function(e){
	  alert("Clicked");
	  });
	 </script>
<style>
svg{
 -webkit-touch-callout: none;                
        -webkit-text-size-adjust: none;            
        -webkit-user-select: none;
}

.btn:hover{
opacity:.75;
</style>

<g id="screen">
	<rect x="13.073" y="7.057" fill="#D5D7D8" width="20.073" height="14.461"/>
	<path fill="#231F20" d="M28.277,10.417l-0.359-0.403c-0.088,0.09-0.145,0.208-0.156,0.334l-0.16,1.517l0.066,0.038l0.482-0.278
		L28.277,10.417z"/>
	<path fill="#231F20" d="M29.893,11.82l0.143-1.355c0.021-0.199-0.064-0.396-0.229-0.511l-0.285,0.462l-0.127,1.212l0.418,0.241
		L29.893,11.82z"/>
	<polygon fill="#231F20" points="27.742,11.945 28.223,11.668 29.314,11.668 29.736,11.912 29.258,12.188 28.164,12.188 	"/>
	<path fill="#231F20" d="M29.379,13.965l-0.242-0.479h-1.119l-0.375,0.396c0.1,0.082,0.225,0.126,0.354,0.125h1.166
		C29.236,14.008,29.311,13.994,29.379,13.965z"/>
	<path fill="#231F20" d="M29.811,11.955l-0.48,0.276l-0.127,1.214l0.242,0.485c0.152-0.09,0.252-0.246,0.271-0.422l0.158-1.517
		L29.811,11.955z"/>
	<path fill="#231F20" d="M28.316,9.85h1.166c0.09,0,0.18,0.022,0.26,0.064l-0.283,0.457h-1.115l-0.367-0.405
		C28.072,9.89,28.193,9.849,28.316,9.85z"/>
	<path fill="#231F20" d="M24.525,11.865l0.066,0.038l0.482-0.278l0.127-1.207l-0.357-0.403c-0.09,0.09-0.146,0.208-0.158,0.334
		L24.525,11.865z"/>
	<polygon fill="#231F20" points="24.666,11.945 25.146,11.668 26.238,11.668 26.662,11.912 26.18,12.188 25.09,12.188 	"/>
	<path fill="#231F20" d="M26.73,9.954l-0.285,0.462l-0.127,1.212l0.416,0.241l0.084-0.049l0.143-1.355
		C26.982,10.266,26.895,10.069,26.73,9.954z"/>
	<path fill="#231F20" d="M26.303,13.965l-0.244-0.479h-1.115l-0.377,0.396c0.102,0.082,0.227,0.126,0.355,0.125h1.164
		C26.162,14.008,26.234,13.994,26.303,13.965z"/>
	<path fill="#231F20" d="M26.254,12.231l-0.127,1.214l0.242,0.485c0.152-0.09,0.254-0.246,0.271-0.422l0.16-1.517l-0.066-0.038
		L26.254,12.231z"/>
	<path fill="#231F20" d="M26.383,10.371l0.283-0.457c-0.08-0.042-0.168-0.064-0.26-0.064h-1.164
		c-0.125-0.001-0.246,0.04-0.344,0.116l0.367,0.405H26.383L26.383,10.371z"/>
	<polygon fill="#231F20" points="21.082,13.486 20.691,13.486 20.637,14.008 21.027,14.008 	"/>
	<polygon fill="#231F20" points="22.072,11.668 23.164,11.668 23.586,11.912 23.105,12.188 22.014,12.188 21.592,11.945 	"/>
	<path fill="#231F20" d="M23.371,10.416l-0.127,1.212l0.416,0.241l0.084-0.049l0.143-1.355c0.02-0.199-0.066-0.396-0.23-0.511
		L23.371,10.416z"/>
	<path fill="#231F20" d="M23.18,12.231l-0.127,1.214l0.24,0.485c0.152-0.09,0.254-0.246,0.271-0.422l0.16-1.517l-0.064-0.038
		L23.18,12.231z"/>
	<path fill="#231F20" d="M21.848,14.008h1.164c0.074,0,0.146-0.015,0.217-0.043l-0.244-0.479h-1.117l-0.375,0.396
		C21.592,13.965,21.719,14.009,21.848,14.008z"/>
	<path fill="#231F20" d="M21.824,9.966c0.098-0.076,0.219-0.117,0.342-0.116h1.166c0.092,0,0.18,0.022,0.26,0.064l-0.283,0.457
		h-1.117L21.824,9.966z"/>
	<path fill="#231F20" d="M20.58,9.954l-0.285,0.462l-0.127,1.212l0.418,0.241l0.082-0.049l0.145-1.355
		C20.832,10.266,20.744,10.069,20.58,9.954z"/>
	<path fill="#231F20" d="M20.105,12.231l-0.129,1.214l0.242,0.485c0.152-0.09,0.254-0.246,0.271-0.422l0.16-1.517l-0.066-0.038
		L20.105,12.231z"/>
	<path fill="#231F20" d="M20.518,9.915c-0.08-0.042-0.17-0.064-0.26-0.064h-1.166c-0.123-0.001-0.244,0.04-0.344,0.116l0.367,0.405
		h1.117L20.518,9.915z"/>
	<path fill="#231F20" d="M15.977,17.207l0.063,0.009c-0.013,0.034-0.031,0.06-0.056,0.077c-0.025,0.018-0.054,0.025-0.087,0.025
		c-0.038,0-0.067-0.011-0.088-0.032c-0.021-0.022-0.032-0.055-0.032-0.097c0-0.033,0.007-0.064,0.021-0.093
		c0.014-0.028,0.034-0.05,0.059-0.064c0.025-0.016,0.052-0.022,0.082-0.022c0.033,0,0.06,0.008,0.081,0.026
		c0.021,0.017,0.032,0.041,0.036,0.07l-0.061,0.006c-0.003-0.018-0.01-0.029-0.019-0.037c-0.01-0.009-0.022-0.013-0.038-0.013
		c-0.018,0-0.034,0.005-0.049,0.017c-0.015,0.011-0.027,0.025-0.036,0.048c-0.009,0.021-0.014,0.044-0.014,0.065
		c0,0.024,0.006,0.042,0.018,0.057c0.012,0.013,0.027,0.02,0.044,0.02c0.016,0,0.031-0.005,0.044-0.016
		C15.958,17.242,15.97,17.227,15.977,17.207z"/>
	<path fill="#231F20" d="M16.284,17.015h-0.07l-0.173,0.299h0.065l0.037-0.065h0.121l0.01,0.065h0.06L16.284,17.015z M16.165,17.198
		l0.074-0.12l0.018,0.12H16.165z"/>
	<polygon fill="#231F20" points="16.374,17.313 16.438,17.015 16.5,17.015 16.447,17.264 16.603,17.264 16.592,17.313 	"/>
	<path fill="#231F20" d="M17.116,17.159c0.02-0.007,0.034-0.016,0.044-0.027c0.009-0.012,0.014-0.027,0.014-0.043
		c0-0.012-0.003-0.023-0.008-0.034s-0.013-0.018-0.024-0.023c-0.01-0.007-0.023-0.011-0.038-0.013
		c-0.009-0.001-0.025-0.002-0.047-0.002h-0.104l-0.064,0.299h0.144c0.032,0,0.057-0.003,0.075-0.01
		c0.018-0.007,0.033-0.019,0.043-0.035c0.011-0.016,0.016-0.033,0.016-0.051c0-0.014-0.004-0.026-0.013-0.037
		C17.145,17.172,17.132,17.163,17.116,17.159z M17.094,17.246c-0.005,0.007-0.012,0.013-0.021,0.016
		c-0.009,0.003-0.026,0.005-0.051,0.005h-0.061l0.017-0.078h0.075c0.017,0,0.03,0.003,0.037,0.01
		c0.008,0.007,0.011,0.015,0.011,0.024C17.102,17.229,17.099,17.237,17.094,17.246z M17.105,17.117
		c-0.004,0.007-0.012,0.012-0.021,0.015c-0.009,0.003-0.025,0.004-0.046,0.004H16.99l0.016-0.071h0.049c0.017,0,0.028,0,0.033,0.001
		c0.008,0.002,0.015,0.005,0.019,0.011c0.004,0.004,0.007,0.011,0.007,0.019C17.112,17.103,17.11,17.109,17.105,17.117z"/>
	<path fill="#231F20" d="M17.261,17.016h0.063l-0.035,0.162l-0.009,0.04c0,0.003,0,0.007,0,0.01c0,0.013,0.004,0.021,0.013,0.029
		c0.009,0.008,0.021,0.011,0.039,0.011c0.015,0,0.027-0.002,0.037-0.008c0.01-0.005,0.018-0.014,0.023-0.025
		c0.005-0.011,0.011-0.029,0.017-0.056l0.035-0.163h0.062l-0.035,0.164c-0.007,0.034-0.016,0.062-0.025,0.079
		c-0.01,0.019-0.024,0.033-0.043,0.044c-0.02,0.012-0.044,0.017-0.074,0.017c-0.036,0-0.063-0.008-0.082-0.024
		c-0.019-0.018-0.028-0.039-0.028-0.065c0-0.006,0-0.012,0.001-0.019c0-0.004,0.003-0.018,0.007-0.037L17.261,17.016z"/>
	<polygon fill="#231F20" points="17.505,17.313 17.569,17.016 17.782,17.016 17.771,17.064 17.621,17.064 17.605,17.137 
		17.753,17.137 17.742,17.188 17.594,17.188 17.568,17.313 	"/>
	<polygon fill="#231F20" points="17.765,17.313 17.829,17.016 18.043,17.016 18.032,17.064 17.882,17.064 17.866,17.137 
		18.014,17.137 18.003,17.188 17.855,17.188 17.828,17.313 	"/>
	<polygon fill="#231F20" points="18.027,17.313 18.09,17.016 18.317,17.016 18.306,17.064 18.143,17.064 18.128,17.133 
		18.286,17.133 18.276,17.184 18.118,17.184 18.098,17.265 18.276,17.265 18.265,17.313 	"/>
	<path fill="#231F20" d="M18.611,17.094c0-0.018-0.004-0.033-0.012-0.045c-0.008-0.013-0.02-0.021-0.031-0.026
		c-0.014-0.005-0.031-0.007-0.055-0.007h-0.137l-0.064,0.299h0.063l0.026-0.124h0.026c0.015,0,0.025,0.002,0.031,0.006
		c0.01,0.007,0.019,0.021,0.027,0.039c0.016,0.036,0.025,0.062,0.031,0.079h0.068c-0.018-0.042-0.033-0.075-0.047-0.099
		c-0.007-0.011-0.016-0.021-0.023-0.028c0.033-0.004,0.056-0.014,0.071-0.03C18.604,17.14,18.611,17.119,18.611,17.094z
		 M18.538,17.122c-0.006,0.008-0.015,0.015-0.026,0.019c-0.011,0.004-0.033,0.006-0.066,0.006h-0.033l0.017-0.081h0.069
		c0.02,0,0.03,0.001,0.036,0.005c0.009,0.006,0.013,0.015,0.013,0.024C18.549,17.104,18.545,17.112,18.538,17.122z"/>
	<path fill="#231F20" d="M18.63,17.218l0.06-0.003c0.002,0.019,0.004,0.031,0.01,0.038c0.01,0.011,0.027,0.016,0.051,0.016
		c0.021,0,0.037-0.003,0.045-0.011c0.01-0.007,0.016-0.016,0.016-0.026c0-0.009-0.004-0.017-0.012-0.021
		c-0.006-0.004-0.02-0.012-0.043-0.022c-0.023-0.01-0.041-0.019-0.053-0.024c-0.01-0.007-0.02-0.017-0.025-0.026
		s-0.009-0.022-0.009-0.038c0-0.024,0.009-0.046,0.028-0.062c0.02-0.018,0.045-0.025,0.08-0.025c0.037,0,0.064,0.008,0.084,0.025
		c0.02,0.017,0.029,0.038,0.033,0.064l-0.062,0.003c0-0.014-0.006-0.024-0.016-0.033c-0.008-0.008-0.021-0.012-0.039-0.012
		s-0.031,0.003-0.037,0.009c-0.008,0.007-0.012,0.014-0.012,0.022s0.004,0.016,0.01,0.021c0.008,0.006,0.021,0.014,0.045,0.023
		c0.035,0.015,0.059,0.026,0.068,0.036c0.014,0.014,0.02,0.031,0.02,0.053c0,0.026-0.01,0.049-0.031,0.067s-0.051,0.027-0.09,0.027
		c-0.025,0-0.049-0.004-0.066-0.013c-0.021-0.009-0.033-0.021-0.041-0.036C18.633,17.255,18.629,17.237,18.63,17.218z"/>
	<polygon fill="#231F20" points="18.965,17.098 19.021,17.098 19.01,17.154 18.951,17.154 	"/>
	<polygon fill="#231F20" points="18.93,17.258 18.988,17.258 18.977,17.313 18.916,17.313 	"/>
	<path fill="#231F20" d="M29.598,15.264c-0.016-0.017-0.037-0.026-0.064-0.026c-0.035,0-0.062,0.015-0.088,0.04
		c-0.023,0.026-0.037,0.058-0.041,0.091c-0.004,0.026,0.004,0.049,0.02,0.065c0.016,0.018,0.035,0.025,0.062,0.025
		c0.023,0,0.045-0.006,0.064-0.019c0.018-0.012,0.033-0.028,0.047-0.051c0.012-0.021,0.018-0.042,0.02-0.062
		C29.621,15.303,29.615,15.281,29.598,15.264z M29.535,15.381c-0.012,0.019-0.025,0.029-0.043,0.029c-0.01,0-0.018-0.003-0.021-0.01
		c-0.004-0.006-0.006-0.014-0.006-0.023c0.002-0.021,0.01-0.042,0.021-0.061s0.025-0.027,0.043-0.027
		c0.01,0,0.018,0.003,0.021,0.009c0.006,0.006,0.008,0.014,0.008,0.025C29.555,15.342,29.549,15.361,29.535,15.381z"/>
	<path fill="#231F20" d="M29.91,15.521L30,15.536c-0.021,0.049-0.055,0.086-0.092,0.111c-0.039,0.025-0.082,0.039-0.129,0.039
		c-0.055,0-0.094-0.016-0.121-0.048c-0.025-0.032-0.037-0.078-0.031-0.139c0.008-0.049,0.021-0.096,0.047-0.135
		c0.023-0.041,0.057-0.072,0.094-0.095c0.039-0.021,0.078-0.033,0.121-0.033c0.047,0,0.084,0.014,0.109,0.038
		c0.027,0.025,0.041,0.061,0.041,0.104l-0.088,0.008c-0.002-0.025-0.008-0.043-0.02-0.055c-0.014-0.013-0.031-0.018-0.055-0.018
		s-0.049,0.007-0.07,0.022c-0.023,0.015-0.043,0.038-0.061,0.07c-0.018,0.031-0.025,0.062-0.029,0.095
		c-0.004,0.035,0.002,0.062,0.018,0.081c0.016,0.019,0.035,0.027,0.061,0.027c0.023,0,0.045-0.008,0.066-0.021
		C29.883,15.574,29.896,15.552,29.91,15.521z"/>
	<path fill="#231F20" d="M28.393,14.654h-0.105l-0.256,0.449h0.096l0.057-0.099h0.18l0.016,0.099h0.088L28.393,14.654z
		 M28.215,14.93l0.109-0.181l0.025,0.181H28.215z"/>
	<polygon fill="#231F20" points="28.674,15.104 28.58,15.104 28.658,14.729 28.525,14.729 28.541,14.654 28.9,14.654 28.885,14.729 
		28.752,14.729 	"/>
	<path fill="#231F20" d="M29.193,14.941l0.094,0.015c-0.02,0.05-0.047,0.089-0.084,0.114c-0.035,0.027-0.078,0.04-0.129,0.04
		c-0.055,0-0.098-0.017-0.129-0.049c-0.033-0.033-0.049-0.082-0.049-0.144c0-0.051,0.012-0.099,0.033-0.141
		c0.02-0.042,0.049-0.074,0.086-0.097c0.037-0.021,0.078-0.034,0.121-0.034c0.051,0,0.09,0.014,0.121,0.039
		c0.029,0.026,0.047,0.062,0.053,0.106l-0.09,0.008c-0.004-0.026-0.016-0.045-0.029-0.057c-0.014-0.013-0.031-0.019-0.057-0.019
		s-0.049,0.008-0.072,0.023c-0.021,0.016-0.039,0.04-0.053,0.072c-0.014,0.033-0.021,0.066-0.021,0.1
		c0,0.036,0.01,0.062,0.027,0.083c0.016,0.02,0.039,0.03,0.062,0.03c0.025,0,0.047-0.009,0.066-0.023
		C29.168,14.995,29.182,14.972,29.193,14.941z"/>
	<polygon fill="#231F20" points="27.633,17.385 27.834,17.385 27.861,17.116 27.66,17.116 	"/>
	<polygon fill="#231F20" points="26.537,16.319 26.785,16.177 27.35,16.177 27.566,16.303 27.318,16.445 26.756,16.445 	"/>
	<path fill="#231F20" d="M27.604,15.292l-0.148,0.239l-0.064,0.625l0.217,0.125l0.043-0.025l0.072-0.7
		C27.732,15.453,27.688,15.352,27.604,15.292z"/>
	<path fill="#231F20" d="M26.498,16.342l-0.043,0.025l-0.072,0.699c-0.01,0.083,0.02,0.166,0.074,0.228l0.193-0.204l0.064-0.623
		L26.498,16.342z"/>
	<path fill="#231F20" d="M27.383,17.361l-0.127-0.246H26.68l-0.193,0.204c0.051,0.042,0.115,0.065,0.184,0.064h0.602
		C27.309,17.385,27.348,17.377,27.383,17.361z"/>
	<path fill="#231F20" d="M27.424,15.507l0.146-0.236c-0.043-0.021-0.088-0.033-0.135-0.033h-0.604c-0.062,0-0.125,0.021-0.176,0.061
		l0.189,0.209H27.424z"/>
	<polygon fill="#231F20" points="25.197,16.177 25.762,16.177 25.98,16.303 25.732,16.445 25.168,16.445 24.949,16.319 	"/>
	<path fill="#231F20" d="M25.869,15.531l-0.064,0.625l0.215,0.125l0.043-0.025l0.072-0.7c0.012-0.103-0.033-0.204-0.117-0.264
		L25.869,15.531z"/>
	<path fill="#231F20" d="M24.912,16.342l-0.045,0.025l-0.072,0.699c-0.01,0.083,0.02,0.166,0.076,0.228l0.191-0.204l0.064-0.623
		L24.912,16.342z"/>
	<path fill="#231F20" d="M25.082,17.385h0.604c0.037,0,0.076-0.008,0.109-0.022l-0.125-0.246h-0.576L24.9,17.32
		C24.951,17.361,25.016,17.385,25.082,17.385z"/>
	<path fill="#231F20" d="M25.07,15.298c0.051-0.039,0.113-0.061,0.178-0.061h0.602c0.047,0,0.094,0.013,0.135,0.033l-0.146,0.236
		h-0.576L25.07,15.298z"/>
	<path fill="#231F20" d="M19.941,14.901c0-0.018-0.004-0.032-0.012-0.045c-0.008-0.012-0.018-0.021-0.031-0.025
		c-0.012-0.004-0.029-0.007-0.053-0.007h-0.133l-0.062,0.299h0.062L19.738,15h0.025c0.014,0,0.023,0.002,0.029,0.006
		c0.01,0.006,0.02,0.02,0.027,0.039c0.016,0.036,0.027,0.062,0.031,0.079h0.066c-0.018-0.042-0.031-0.076-0.047-0.1
		c-0.006-0.011-0.014-0.021-0.021-0.027c0.031-0.004,0.055-0.015,0.068-0.031C19.936,14.949,19.941,14.928,19.941,14.901z
		 M19.871,14.93c-0.006,0.008-0.014,0.014-0.023,0.019c-0.012,0.004-0.033,0.006-0.066,0.006h-0.033l0.018-0.081h0.066
		c0.02,0,0.031,0.002,0.035,0.005c0.01,0.005,0.016,0.014,0.016,0.023C19.881,14.913,19.877,14.921,19.871,14.93z"/>
	<polygon fill="#231F20" points="19.951,15.123 20.014,14.824 20.236,14.824 20.225,14.874 20.064,14.874 20.051,14.941 
		20.205,14.941 20.195,14.992 20.039,14.992 20.021,15.073 20.195,15.073 20.186,15.123 	"/>
	<path fill="#231F20" d="M20.238,15.025l0.061-0.003c0,0.02,0.004,0.032,0.01,0.038c0.008,0.01,0.023,0.017,0.049,0.017
		c0.02,0,0.035-0.003,0.043-0.012c0.01-0.008,0.014-0.016,0.014-0.025c0-0.009-0.004-0.018-0.01-0.022
		c-0.006-0.004-0.02-0.012-0.043-0.021c-0.021-0.011-0.039-0.02-0.051-0.025c-0.01-0.007-0.02-0.016-0.025-0.026
		s-0.008-0.022-0.008-0.037c0-0.025,0.008-0.047,0.027-0.063c0.018-0.017,0.045-0.025,0.08-0.025c0.033,0,0.061,0.009,0.082,0.025
		c0.02,0.017,0.029,0.038,0.031,0.066l-0.059,0.002c-0.002-0.015-0.008-0.025-0.016-0.033c-0.01-0.007-0.023-0.011-0.039-0.011
		c-0.018,0-0.029,0.003-0.037,0.009s-0.012,0.013-0.012,0.021c0,0.01,0.004,0.017,0.01,0.021c0.008,0.005,0.021,0.013,0.045,0.022
		c0.033,0.016,0.055,0.027,0.064,0.036c0.014,0.015,0.021,0.031,0.021,0.054c0,0.025-0.01,0.049-0.031,0.066
		c-0.021,0.02-0.051,0.028-0.088,0.028c-0.025,0-0.047-0.004-0.066-0.013c-0.02-0.01-0.031-0.021-0.041-0.036
		C20.242,15.063,20.238,15.046,20.238,15.025z"/>
	<path fill="#231F20" d="M20.773,14.856c-0.008-0.012-0.018-0.02-0.029-0.024s-0.029-0.007-0.051-0.007H20.57l-0.061,0.299h0.061
		l0.025-0.114h0.039c0.025,0,0.045-0.001,0.055-0.002c0.016-0.002,0.029-0.005,0.039-0.01s0.02-0.012,0.027-0.021
		s0.016-0.02,0.021-0.034c0.004-0.014,0.008-0.028,0.008-0.044C20.785,14.883,20.781,14.869,20.773,14.856z M20.715,14.934
		c-0.008,0.009-0.016,0.017-0.027,0.021c-0.01,0.004-0.033,0.006-0.064,0.006h-0.02l0.018-0.086h0.045
		c0.02,0,0.033,0.001,0.039,0.003c0.004,0.002,0.01,0.005,0.014,0.01c0.002,0.004,0.004,0.01,0.004,0.018
		C20.723,14.915,20.721,14.925,20.715,14.934z"/>
	<path fill="#231F20" d="M21.064,14.854c-0.023-0.022-0.053-0.035-0.09-0.035c-0.027,0-0.053,0.007-0.074,0.018
		c-0.023,0.011-0.041,0.025-0.055,0.046c-0.014,0.019-0.025,0.042-0.031,0.068c-0.006,0.019-0.008,0.037-0.008,0.056
		s0.004,0.038,0.012,0.057c0.008,0.02,0.021,0.034,0.039,0.047c0.02,0.014,0.043,0.02,0.07,0.02c0.031,0,0.061-0.008,0.086-0.024
		c0.025-0.016,0.045-0.039,0.061-0.067c0.016-0.029,0.023-0.061,0.023-0.092C21.098,14.907,21.086,14.876,21.064,14.854z
		 M21.021,15.011c-0.01,0.022-0.023,0.039-0.037,0.05c-0.016,0.011-0.031,0.018-0.049,0.018c-0.021,0-0.037-0.008-0.049-0.021
		c-0.014-0.014-0.02-0.031-0.02-0.051c0-0.034,0.01-0.064,0.029-0.092c0.018-0.028,0.043-0.042,0.072-0.042
		c0.02,0,0.035,0.006,0.049,0.02c0.012,0.013,0.018,0.032,0.018,0.055C21.035,14.967,21.031,14.989,21.021,15.011z"/>
	<polygon fill="#231F20" points="21.352,15.123 21.293,15.123 21.213,14.922 21.17,15.123 21.113,15.123 21.176,14.824 
		21.234,14.824 21.314,15.023 21.357,14.824 21.414,14.824 	"/>
	<path fill="#231F20" d="M21.424,15.025l0.059-0.003c0,0.02,0.004,0.032,0.01,0.038c0.008,0.01,0.025,0.017,0.049,0.017
		c0.021,0,0.035-0.003,0.045-0.012c0.01-0.007,0.014-0.016,0.014-0.025c0-0.009-0.004-0.018-0.012-0.022
		c-0.006-0.004-0.02-0.012-0.043-0.021c-0.023-0.011-0.041-0.02-0.051-0.025c-0.01-0.007-0.018-0.016-0.023-0.026
		c-0.006-0.01-0.01-0.022-0.01-0.037c0-0.025,0.01-0.047,0.027-0.063c0.02-0.017,0.045-0.025,0.078-0.025
		c0.035,0,0.062,0.009,0.082,0.025s0.031,0.038,0.033,0.066l-0.061,0.002c0-0.015-0.006-0.025-0.014-0.033
		c-0.01-0.007-0.023-0.011-0.041-0.011c-0.016,0-0.029,0.003-0.035,0.009c-0.008,0.006-0.012,0.013-0.012,0.021
		c0,0.01,0.004,0.017,0.01,0.021s0.021,0.013,0.045,0.022c0.035,0.016,0.057,0.027,0.066,0.036c0.014,0.015,0.02,0.031,0.02,0.054
		c0,0.025-0.01,0.049-0.029,0.066c-0.021,0.019-0.051,0.028-0.088,0.028c-0.025,0-0.049-0.004-0.066-0.013
		c-0.02-0.01-0.031-0.021-0.039-0.036C21.426,15.063,21.424,15.046,21.424,15.025z"/>
	<polygon fill="#231F20" points="21.693,15.123 21.754,14.824 21.977,14.824 21.967,14.874 21.807,14.874 21.791,14.941 
		21.947,14.941 21.936,14.992 21.781,14.992 21.764,15.073 21.938,15.073 21.926,15.123 	"/>
	<path fill="#231F20" d="M16.304,15.016l0.062,0.009c-0.012,0.034-0.03,0.06-0.055,0.077c-0.024,0.019-0.052,0.026-0.085,0.026
		c-0.037,0-0.065-0.011-0.085-0.033c-0.021-0.021-0.031-0.054-0.031-0.096c0-0.034,0.007-0.065,0.021-0.093
		c0.014-0.028,0.033-0.051,0.057-0.065c0.025-0.015,0.051-0.022,0.08-0.022c0.033,0,0.059,0.01,0.079,0.026s0.032,0.041,0.035,0.071
		l-0.059,0.005c-0.003-0.018-0.01-0.03-0.019-0.038c-0.009-0.008-0.022-0.012-0.038-0.012c-0.017,0-0.033,0.005-0.047,0.016
		c-0.014,0.011-0.026,0.026-0.035,0.048c-0.009,0.022-0.014,0.044-0.014,0.066c0,0.023,0.006,0.042,0.018,0.055
		c0.011,0.013,0.026,0.021,0.043,0.021c0.016,0,0.03-0.006,0.043-0.017C16.287,15.051,16.298,15.036,16.304,15.016z"/>
	<path fill="#231F20" d="M16.665,14.854c-0.023-0.022-0.053-0.035-0.089-0.035c-0.028,0-0.052,0.007-0.074,0.018
		c-0.021,0.011-0.04,0.025-0.054,0.046c-0.014,0.019-0.025,0.042-0.032,0.068c-0.005,0.02-0.008,0.037-0.008,0.056
		s0.004,0.038,0.012,0.057c0.008,0.02,0.021,0.034,0.04,0.047c0.019,0.014,0.042,0.02,0.07,0.02c0.032,0,0.061-0.008,0.086-0.024
		c0.025-0.016,0.045-0.039,0.061-0.067c0.015-0.029,0.022-0.061,0.022-0.092C16.699,14.907,16.688,14.876,16.665,14.854z
		 M16.623,15.011c-0.01,0.022-0.023,0.039-0.038,0.05c-0.016,0.011-0.031,0.018-0.048,0.018c-0.021,0-0.037-0.008-0.049-0.021
		c-0.013-0.014-0.019-0.031-0.019-0.051c0-0.034,0.01-0.064,0.028-0.092c0.019-0.028,0.043-0.042,0.073-0.042
		c0.02,0,0.036,0.006,0.049,0.02c0.012,0.013,0.019,0.032,0.019,0.055C16.638,14.967,16.633,14.989,16.623,15.011z"/>
	<polygon fill="#231F20" points="16.953,15.123 16.896,15.123 16.815,14.922 16.773,15.123 16.716,15.123 16.778,14.824 
		16.836,14.824 16.916,15.023 16.958,14.824 17.015,14.824 	"/>
	<path fill="#231F20" d="M17.297,14.907c-0.003-0.014-0.008-0.023-0.014-0.033c-0.005-0.01-0.013-0.019-0.021-0.025
		c-0.008-0.007-0.017-0.012-0.026-0.016c-0.01-0.003-0.021-0.006-0.033-0.007c-0.006-0.001-0.021-0.001-0.043-0.001h-0.081
		l-0.062,0.299h0.105c0.027,0,0.046-0.001,0.059-0.004c0.023-0.005,0.041-0.015,0.055-0.025c0.019-0.015,0.034-0.035,0.047-0.06
		c0.012-0.025,0.018-0.054,0.018-0.085C17.301,14.933,17.299,14.919,17.297,14.907z M17.227,15.011
		c-0.008,0.018-0.019,0.033-0.03,0.044c-0.008,0.008-0.018,0.013-0.028,0.016c-0.01,0.004-0.027,0.005-0.049,0.005h-0.032
		l0.042-0.202h0.036c0.018,0,0.031,0.001,0.038,0.003c0.01,0.004,0.019,0.011,0.025,0.021c0.006,0.011,0.01,0.027,0.01,0.048
		C17.239,14.971,17.235,14.993,17.227,15.011z"/>
	<polygon fill="#231F20" points="17.315,15.123 17.377,14.824 17.439,14.824 17.376,15.123 	"/>
	<polygon fill="#231F20" points="17.564,15.123 17.502,15.123 17.554,14.874 17.466,14.874 17.477,14.824 17.713,14.824 
		17.702,14.874 17.615,14.874 	"/>
	<polygon fill="#231F20" points="17.686,15.123 17.749,14.824 17.81,14.824 17.748,15.123 	"/>
	<path fill="#231F20" d="M18.081,14.854c-0.022-0.022-0.053-0.035-0.089-0.035c-0.028,0-0.052,0.007-0.074,0.018
		c-0.021,0.011-0.04,0.025-0.054,0.046c-0.014,0.019-0.024,0.042-0.031,0.068c-0.005,0.02-0.008,0.037-0.008,0.056
		s0.004,0.038,0.012,0.057c0.008,0.02,0.021,0.034,0.041,0.047c0.019,0.014,0.042,0.02,0.07,0.02c0.032,0,0.061-0.008,0.086-0.024
		c0.025-0.016,0.045-0.039,0.061-0.067c0.015-0.029,0.022-0.061,0.022-0.092C18.115,14.907,18.104,14.876,18.081,14.854z
		 M18.039,15.011c-0.01,0.022-0.022,0.039-0.038,0.05c-0.015,0.011-0.031,0.018-0.048,0.018c-0.021,0-0.037-0.008-0.049-0.021
		c-0.013-0.014-0.019-0.031-0.019-0.051c0-0.034,0.009-0.064,0.028-0.092c0.019-0.028,0.043-0.042,0.074-0.042
		c0.02,0,0.036,0.006,0.048,0.02c0.013,0.013,0.019,0.032,0.019,0.055C18.054,14.967,18.049,14.989,18.039,15.011z"/>
	<polygon fill="#231F20" points="18.369,15.123 18.311,15.123 18.231,14.922 18.189,15.123 18.131,15.123 18.194,14.824 
		18.251,14.824 18.332,15.023 18.374,14.824 18.431,14.824 	"/>
	<path fill="#231F20" d="M16.364,14.351h0.061l-0.038,0.182c-0.01,0.048-0.023,0.08-0.04,0.097s-0.042,0.024-0.076,0.024
		c-0.028,0-0.05-0.006-0.064-0.02c-0.014-0.013-0.021-0.031-0.021-0.054c0-0.005,0-0.011,0.001-0.017l0.057-0.006
		c0,0.006-0.001,0.011-0.001,0.016c0,0.01,0.002,0.017,0.008,0.021c0.006,0.005,0.014,0.007,0.025,0.007
		c0.016,0,0.027-0.004,0.033-0.014c0.005-0.007,0.011-0.027,0.017-0.061L16.364,14.351z"/>
	<path fill="#231F20" d="M16.486,14.351h0.062l-0.034,0.162l-0.008,0.04c0,0.003-0.001,0.007-0.001,0.01
		c0,0.013,0.004,0.021,0.013,0.029c0.009,0.007,0.021,0.011,0.038,0.011c0.015,0,0.027-0.002,0.037-0.008
		c0.01-0.005,0.017-0.014,0.022-0.025c0.005-0.011,0.011-0.029,0.016-0.056l0.035-0.163h0.061l-0.034,0.164
		c-0.007,0.034-0.016,0.062-0.025,0.079c-0.01,0.019-0.024,0.033-0.043,0.044c-0.019,0.012-0.043,0.017-0.072,0.017
		c-0.035,0-0.061-0.008-0.08-0.024c-0.019-0.018-0.028-0.039-0.028-0.066c0-0.005,0-0.011,0.001-0.018
		c0-0.004,0.003-0.018,0.007-0.037L16.486,14.351z"/>
	<polygon fill="#231F20" points="16.965,14.648 16.907,14.648 16.826,14.449 16.784,14.648 16.727,14.648 16.79,14.351 
		16.847,14.351 16.928,14.55 16.97,14.351 17.027,14.351 	"/>
	<path fill="#231F20" d="M17.244,14.542l0.062,0.009c-0.012,0.034-0.03,0.059-0.054,0.077c-0.024,0.018-0.053,0.026-0.085,0.026
		c-0.036,0-0.065-0.011-0.085-0.032c-0.02-0.022-0.031-0.055-0.031-0.097c0-0.033,0.007-0.064,0.021-0.093
		c0.014-0.028,0.033-0.05,0.057-0.064c0.025-0.016,0.051-0.022,0.08-0.022c0.033,0,0.059,0.009,0.079,0.026s0.032,0.041,0.036,0.07
		l-0.059,0.006c-0.003-0.018-0.01-0.03-0.019-0.038c-0.009-0.009-0.021-0.013-0.037-0.013c-0.017,0-0.033,0.005-0.048,0.017
		c-0.015,0.01-0.026,0.025-0.035,0.048c-0.009,0.021-0.014,0.044-0.014,0.065c0,0.024,0.006,0.042,0.018,0.056
		c0.011,0.013,0.026,0.02,0.043,0.02c0.016,0,0.03-0.005,0.043-0.015C17.228,14.577,17.237,14.562,17.244,14.542z"/>
	<polygon fill="#231F20" points="17.459,14.648 17.398,14.648 17.45,14.399 17.362,14.399 17.372,14.351 17.608,14.351 
		17.598,14.399 17.511,14.399 	"/>
	<polygon fill="#231F20" points="17.582,14.648 17.644,14.351 17.706,14.351 17.643,14.648 	"/>
	<path fill="#231F20" d="M17.977,14.38c-0.023-0.023-0.053-0.035-0.09-0.035c-0.028,0-0.052,0.006-0.074,0.017
		c-0.022,0.012-0.04,0.026-0.054,0.046c-0.014,0.02-0.025,0.042-0.032,0.068c-0.005,0.02-0.008,0.038-0.008,0.057
		s0.004,0.037,0.012,0.057c0.008,0.019,0.021,0.034,0.04,0.047s0.042,0.019,0.07,0.019c0.032,0,0.061-0.008,0.086-0.023
		c0.025-0.016,0.045-0.039,0.06-0.068c0.015-0.028,0.022-0.06,0.022-0.091C18.011,14.433,17.999,14.402,17.977,14.38z
		 M17.934,14.537c-0.01,0.021-0.022,0.039-0.038,0.05c-0.015,0.011-0.031,0.017-0.048,0.017c-0.02,0-0.037-0.007-0.049-0.021
		c-0.012-0.015-0.019-0.031-0.019-0.051c0-0.034,0.009-0.064,0.028-0.093c0.019-0.027,0.043-0.042,0.073-0.042
		c0.02,0,0.036,0.007,0.048,0.021c0.013,0.013,0.019,0.032,0.019,0.055C17.949,14.493,17.944,14.515,17.934,14.537z"/>
	<polygon fill="#231F20" points="18.264,14.648 18.207,14.648 18.126,14.449 18.084,14.648 18.027,14.648 18.089,14.351 
		18.147,14.351 18.228,14.55 18.27,14.351 18.327,14.351 	"/>
	<polygon fill="#231F20" points="17.846,16.069 17.848,16.07 17.85,16.073 17.852,16.074 17.854,16.075 17.856,16.077 
		17.858,16.078 17.859,16.079 17.861,16.081 17.863,16.082 17.865,16.083 17.866,16.084 17.868,16.086 17.87,16.087 17.872,16.088 
		18.308,15.51 18.305,15.507 18.302,15.505 18.296,15.5 18.293,15.498 18.29,15.496 18.287,15.494 18.283,15.491 18.28,15.489 
		18.271,15.481 18.268,15.479 18.265,15.478 18.258,15.474 17.843,16.066 	"/>
	<polygon fill="#231F20" points="17.586,15.188 17.447,15.898 17.452,15.899 17.454,15.9 17.456,15.9 17.459,15.901 17.461,15.901 
		17.463,15.902 17.465,15.902 17.467,15.903 17.472,15.904 17.474,15.904 17.476,15.906 17.478,15.906 17.481,15.907 17.483,15.907 
		17.646,15.201 17.642,15.2 17.638,15.199 17.634,15.198 17.631,15.198 17.627,15.196 17.623,15.195 17.62,15.194 17.616,15.193 
		17.612,15.192 17.609,15.192 17.605,15.191 17.601,15.19 17.597,15.189 17.593,15.188 	"/>
	<polygon fill="#231F20" points="16.633,16.086 16.634,16.084 16.636,16.083 16.638,16.082 16.64,16.081 16.642,16.079 
		16.644,16.078 16.646,16.077 16.647,16.075 16.649,16.074 16.651,16.073 16.653,16.07 16.654,16.069 16.656,16.068 16.658,16.066 
		16.243,15.474 16.239,15.476 16.236,15.478 16.233,15.479 16.23,15.481 16.227,15.484 16.217,15.491 16.215,15.494 16.212,15.496 
		16.208,15.498 16.205,15.5 16.199,15.505 16.193,15.51 16.629,16.088 	"/>
	<polygon fill="#231F20" points="17.023,15.906 17.025,15.906 17.027,15.904 17.029,15.904 17.036,15.902 17.038,15.902 
		17.04,15.901 17.043,15.901 17.045,15.9 17.047,15.9 17.053,15.898 16.915,15.188 16.911,15.188 16.908,15.188 16.904,15.189 
		16.9,15.19 16.897,15.191 16.893,15.192 16.889,15.192 16.885,15.193 16.882,15.194 16.878,15.195 16.874,15.196 16.87,15.198 
		16.866,15.198 16.863,15.199 16.855,15.201 17.018,15.907 	"/>
	<polygon fill="#231F20" points="15.74,16.015 15.738,16.018 15.736,16.021 15.735,16.023 15.733,16.027 15.731,16.031 
		15.729,16.035 15.727,16.038 15.725,16.041 15.723,16.044 15.721,16.048 15.719,16.051 15.717,16.055 15.714,16.061 16.347,16.413 
		16.35,16.409 16.351,16.407 16.352,16.404 16.353,16.402 16.354,16.4 16.355,16.398 16.357,16.396 16.36,16.391 16.361,16.389 
		16.362,16.387 16.364,16.383 16.365,16.381 15.744,16.008 15.742,16.011 	"/>
	<polygon fill="#231F20" points="18.153,16.411 18.153,16.413 18.787,16.061 18.785,16.058 18.781,16.051 18.779,16.048 
		18.777,16.044 18.777,16.041 18.775,16.038 18.773,16.035 18.771,16.031 18.77,16.027 18.768,16.023 18.766,16.021 18.764,16.018 
		18.762,16.015 18.758,16.008 18.135,16.381 18.138,16.385 18.139,16.387 18.14,16.389 18.141,16.391 18.144,16.395 18.145,16.396 
		18.146,16.398 18.147,16.4 18.148,16.402 18.149,16.404 18.15,16.407 18.152,16.409 	"/>
	<polygon fill="#231F20" points="21.4,16.068 21.402,16.07 21.404,16.071 21.406,16.073 21.408,16.075 21.41,16.076 21.41,16.077 
		21.412,16.079 21.414,16.08 21.416,16.081 21.418,16.083 21.42,16.084 21.424,16.085 21.424,16.086 21.426,16.088 21.861,15.509 
		21.859,15.507 21.855,15.504 21.85,15.5 21.848,15.498 21.844,15.495 21.842,15.493 21.838,15.491 21.834,15.489 21.824,15.481 
		21.822,15.479 21.818,15.478 21.812,15.473 21.396,16.066 	"/>
	<polygon fill="#231F20" points="21.141,15.188 21.002,15.898 21.006,15.899 21.008,15.899 21.01,15.9 21.014,15.9 21.016,15.901 
		21.018,15.901 21.02,15.902 21.021,15.902 21.025,15.903 21.027,15.904 21.029,15.904 21.031,15.906 21.035,15.906 21.037,15.906 
		21.199,15.2 21.195,15.199 21.193,15.199 21.189,15.198 21.186,15.196 21.182,15.195 21.178,15.194 21.174,15.193 21.17,15.192 
		21.166,15.192 21.162,15.191 21.158,15.19 21.154,15.189 21.152,15.189 21.148,15.188 	"/>
	<polygon fill="#231F20" points="20.188,16.085 20.189,16.084 20.191,16.083 20.193,16.081 20.193,16.08 20.195,16.079 
		20.197,16.077 20.199,16.076 20.201,16.075 20.203,16.073 20.205,16.071 20.207,16.07 20.209,16.068 20.211,16.067 20.213,16.066 
		19.797,15.473 19.793,15.475 19.789,15.478 19.787,15.479 19.783,15.481 19.781,15.483 19.771,15.491 19.77,15.493 19.766,15.495 
		19.762,15.498 19.76,15.5 19.752,15.504 19.746,15.509 20.184,16.088 	"/>
	<polygon fill="#231F20" points="20.576,15.906 20.578,15.904 20.58,15.904 20.584,15.903 20.59,15.902 20.592,15.901 
		20.594,15.901 20.598,15.9 20.6,15.9 20.602,15.899 20.607,15.898 20.469,15.188 20.467,15.188 20.461,15.188 20.457,15.189 
		20.453,15.189 20.449,15.19 20.447,15.191 20.443,15.192 20.439,15.192 20.436,15.193 20.432,15.194 20.428,15.195 20.424,15.196 
		20.42,15.198 20.416,15.199 20.408,15.2 20.572,15.906 	"/>
	<polygon fill="#231F20" points="19.295,16.014 19.293,16.018 19.291,16.021 19.289,16.023 19.287,16.026 19.285,16.031 
		19.283,16.034 19.281,16.037 19.279,16.041 19.277,16.044 19.275,16.047 19.273,16.051 19.271,16.054 19.268,16.061 19.902,16.412 
		19.904,16.408 19.904,16.406 19.906,16.403 19.906,16.401 19.908,16.399 19.908,16.397 19.91,16.396 19.914,16.391 19.914,16.389 
		19.916,16.387 19.918,16.383 19.92,16.381 19.299,16.007 19.297,16.011 	"/>
	<polygon fill="#231F20" points="21.707,16.41 21.707,16.412 22.342,16.061 22.34,16.057 22.336,16.051 22.334,16.047 
		22.332,16.044 22.33,16.041 22.328,16.037 22.326,16.034 22.324,16.031 22.322,16.026 22.32,16.023 22.318,16.021 22.316,16.018 
		22.314,16.014 22.311,16.007 21.689,16.381 21.691,16.385 21.693,16.387 21.693,16.389 21.695,16.391 21.697,16.395 21.699,16.396 
		21.699,16.397 21.701,16.399 21.701,16.401 21.703,16.403 21.703,16.406 21.705,16.408 	"/>
	<path fill="#231F20" d="M15.911,16.531c-0.006-0.01-0.013-0.016-0.023-0.02c-0.009-0.004-0.022-0.005-0.038-0.005h-0.092
		l-0.047,0.224h0.046l0.018-0.085h0.03c0.02,0,0.033,0,0.041-0.001c0.012-0.002,0.022-0.004,0.03-0.008
		c0.007-0.003,0.014-0.008,0.021-0.015c0.007-0.007,0.012-0.016,0.016-0.026c0.004-0.01,0.006-0.021,0.006-0.033
		S15.916,16.54,15.911,16.531z M15.865,16.588c-0.004,0.007-0.011,0.012-0.019,0.015c-0.008,0.003-0.024,0.004-0.049,0.004h-0.014
		l0.014-0.063h0.033c0.015,0,0.025,0.001,0.029,0.002c0.004,0.001,0.007,0.004,0.01,0.008c0.002,0.003,0.004,0.008,0.004,0.013
		C15.873,16.574,15.87,16.582,15.865,16.588z"/>
	<path fill="#231F20" d="M16.128,16.527c-0.017-0.018-0.039-0.025-0.067-0.025c-0.021,0-0.039,0.004-0.056,0.013
		c-0.016,0.008-0.029,0.021-0.04,0.034c-0.011,0.014-0.019,0.032-0.024,0.051c-0.004,0.016-0.006,0.029-0.006,0.042
		c0,0.015,0.003,0.028,0.009,0.042c0.006,0.015,0.016,0.026,0.03,0.035c0.014,0.01,0.032,0.014,0.053,0.014
		c0.024,0,0.045-0.006,0.064-0.018c0.019-0.012,0.034-0.029,0.045-0.051c0.011-0.022,0.017-0.045,0.017-0.069
		C16.153,16.567,16.145,16.545,16.128,16.527z M16.096,16.646c-0.008,0.018-0.017,0.029-0.029,0.038
		c-0.011,0.008-0.023,0.012-0.036,0.012c-0.015,0-0.028-0.005-0.037-0.016c-0.009-0.011-0.014-0.022-0.014-0.039
		c0-0.024,0.007-0.048,0.021-0.069c0.014-0.021,0.032-0.03,0.055-0.03c0.015,0,0.027,0.005,0.037,0.015
		c0.009,0.01,0.014,0.024,0.014,0.042C16.108,16.612,16.104,16.629,16.096,16.646z"/>
	<path fill="#231F20" d="M16.372,16.527c-0.017-0.018-0.04-0.025-0.067-0.025c-0.021,0-0.039,0.004-0.056,0.013
		c-0.016,0.008-0.029,0.021-0.04,0.034c-0.011,0.014-0.019,0.032-0.024,0.051c-0.004,0.016-0.006,0.029-0.006,0.042
		c0,0.015,0.003,0.028,0.009,0.042c0.006,0.015,0.016,0.026,0.03,0.035c0.014,0.01,0.032,0.014,0.053,0.014
		c0.024,0,0.045-0.006,0.064-0.018s0.034-0.029,0.045-0.051c0.011-0.022,0.017-0.045,0.017-0.069
		C16.397,16.567,16.389,16.545,16.372,16.527z M16.34,16.646c-0.008,0.018-0.017,0.029-0.029,0.038
		c-0.011,0.008-0.023,0.012-0.036,0.012c-0.015,0-0.028-0.005-0.037-0.016c-0.009-0.011-0.014-0.022-0.014-0.039
		c0-0.024,0.007-0.048,0.021-0.069c0.014-0.021,0.032-0.03,0.055-0.03c0.015,0,0.027,0.005,0.037,0.015
		c0.009,0.01,0.014,0.024,0.014,0.042C16.351,16.612,16.347,16.629,16.34,16.646z"/>
	<path fill="#231F20" d="M16.628,16.564c0-0.014-0.003-0.024-0.009-0.033c-0.006-0.01-0.014-0.017-0.023-0.021
		c-0.009-0.003-0.023-0.005-0.04-0.005h-0.1l-0.047,0.224h0.046l0.02-0.093h0.019c0.011,0,0.019,0.001,0.023,0.004
		c0.007,0.005,0.014,0.016,0.021,0.029c0.011,0.026,0.019,0.046,0.023,0.059h0.05c-0.013-0.032-0.024-0.057-0.035-0.074
		c-0.005-0.009-0.011-0.016-0.017-0.021c0.023-0.003,0.041-0.011,0.052-0.023C16.622,16.6,16.628,16.584,16.628,16.564z
		 M16.574,16.585c-0.004,0.006-0.011,0.011-0.019,0.014s-0.024,0.004-0.049,0.004h-0.024l0.013-0.06h0.051
		c0.013,0,0.022,0.001,0.026,0.003c0.007,0.004,0.01,0.01,0.01,0.018C16.581,16.573,16.579,16.579,16.574,16.585z"/>
	<path fill="#231F20" d="M18.026,16.61h0.101l-0.02,0.097c-0.012,0.007-0.026,0.014-0.043,0.019
		c-0.018,0.005-0.035,0.008-0.053,0.008c-0.028,0-0.049-0.006-0.064-0.019c-0.02-0.017-0.03-0.042-0.03-0.074
		c0-0.021,0.004-0.043,0.013-0.062c0.01-0.024,0.025-0.042,0.044-0.057c0.019-0.013,0.042-0.02,0.067-0.02s0.047,0.006,0.062,0.018
		c0.016,0.013,0.026,0.029,0.031,0.054l-0.043,0.004c-0.004-0.013-0.01-0.022-0.019-0.028c-0.009-0.006-0.019-0.01-0.032-0.01
		c-0.015,0-0.028,0.004-0.041,0.012c-0.012,0.008-0.022,0.02-0.029,0.036c-0.007,0.017-0.01,0.034-0.01,0.053
		c0,0.02,0.004,0.033,0.013,0.042s0.021,0.014,0.038,0.014c0.01,0,0.02-0.001,0.03-0.004c0.011-0.003,0.02-0.006,0.027-0.01
		l0.007-0.034h-0.057L18.026,16.61z"/>
	<path fill="#231F20" d="M18.352,16.527c-0.017-0.018-0.04-0.025-0.067-0.025c-0.021,0-0.04,0.004-0.056,0.013
		c-0.016,0.008-0.03,0.021-0.041,0.034c-0.01,0.015-0.019,0.032-0.023,0.051c-0.004,0.016-0.006,0.029-0.006,0.042
		c0,0.015,0.003,0.028,0.009,0.042c0.006,0.015,0.016,0.026,0.03,0.035c0.014,0.01,0.032,0.014,0.052,0.014
		c0.024,0,0.046-0.006,0.065-0.018s0.034-0.029,0.045-0.051c0.011-0.022,0.017-0.045,0.017-0.069
		C18.378,16.567,18.369,16.545,18.352,16.527z M18.32,16.646c-0.007,0.018-0.017,0.029-0.028,0.038
		c-0.011,0.008-0.023,0.012-0.036,0.012c-0.016,0-0.028-0.005-0.037-0.016c-0.009-0.011-0.014-0.022-0.014-0.039
		c0-0.024,0.007-0.048,0.021-0.069c0.014-0.021,0.033-0.03,0.055-0.03c0.015,0,0.027,0.005,0.036,0.015
		c0.01,0.01,0.014,0.024,0.014,0.042C18.332,16.612,18.328,16.629,18.32,16.646z"/>
	<path fill="#231F20" d="M18.596,16.527c-0.018-0.018-0.039-0.025-0.066-0.025c-0.021,0-0.039,0.004-0.056,0.013
		c-0.016,0.008-0.029,0.021-0.04,0.034s-0.019,0.032-0.024,0.051c-0.004,0.016-0.006,0.029-0.006,0.042
		c0,0.015,0.003,0.028,0.009,0.042c0.006,0.015,0.016,0.026,0.03,0.035c0.014,0.01,0.032,0.014,0.052,0.014
		c0.023,0,0.046-0.006,0.064-0.018c0.02-0.012,0.035-0.029,0.045-0.051c0.012-0.022,0.018-0.045,0.018-0.069
		C18.622,16.567,18.613,16.545,18.596,16.527z M18.564,16.646c-0.008,0.018-0.016,0.029-0.028,0.038
		c-0.011,0.008-0.022,0.012-0.036,0.012c-0.015,0-0.028-0.005-0.037-0.016c-0.009-0.011-0.014-0.022-0.014-0.039
		c0-0.024,0.007-0.048,0.021-0.069c0.014-0.021,0.032-0.03,0.055-0.03c0.015,0,0.027,0.005,0.037,0.015
		c0.009,0.01,0.014,0.024,0.014,0.042C18.576,16.612,18.572,16.629,18.564,16.646z"/>
	<path fill="#231F20" d="M18.844,16.567c-0.002-0.01-0.008-0.018-0.012-0.024s-0.008-0.014-0.014-0.02
		c-0.006-0.005-0.014-0.009-0.02-0.012c-0.008-0.003-0.018-0.005-0.025-0.006c-0.006,0-0.016,0-0.033,0H18.68l-0.047,0.224h0.078
		c0.021,0,0.035-0.001,0.045-0.003c0.018-0.004,0.031-0.01,0.043-0.019c0.014-0.012,0.025-0.026,0.033-0.044
		c0.01-0.02,0.016-0.041,0.016-0.064C18.848,16.588,18.846,16.578,18.844,16.567z M18.791,16.646
		c-0.006,0.015-0.014,0.025-0.023,0.033c-0.006,0.005-0.014,0.009-0.021,0.012c-0.008,0.002-0.02,0.003-0.037,0.003h-0.021
		l0.031-0.15h0.025c0.016,0,0.023,0.001,0.029,0.003c0.008,0.003,0.014,0.008,0.018,0.016c0.006,0.008,0.01,0.021,0.01,0.036
		C18.801,16.616,18.797,16.633,18.791,16.646z"/>
	<path fill="#231F20" d="M19.273,16.657l0.043-0.003c0,0.015,0.004,0.023,0.008,0.028c0.006,0.008,0.02,0.012,0.037,0.012
		c0.014,0,0.025-0.003,0.033-0.008c0.006-0.005,0.01-0.012,0.01-0.02c0-0.007-0.004-0.013-0.008-0.018
		c-0.004-0.003-0.016-0.009-0.033-0.016c-0.018-0.008-0.029-0.014-0.037-0.019c-0.008-0.006-0.014-0.013-0.02-0.021
		c-0.004-0.008-0.006-0.018-0.006-0.028c0-0.019,0.006-0.034,0.02-0.047s0.035-0.019,0.061-0.019s0.047,0.006,0.061,0.019
		c0.014,0.014,0.023,0.029,0.023,0.049L19.42,16.57c0-0.011-0.004-0.019-0.012-0.023c-0.006-0.006-0.016-0.009-0.029-0.009
		c-0.012,0-0.021,0.002-0.025,0.007c-0.006,0.005-0.008,0.01-0.008,0.017c0,0.006,0.002,0.013,0.008,0.017
		c0.004,0.004,0.016,0.01,0.033,0.018c0.025,0.011,0.041,0.021,0.049,0.027c0.01,0.01,0.016,0.022,0.016,0.039
		c0,0.02-0.008,0.037-0.021,0.051c-0.018,0.014-0.039,0.021-0.066,0.021c-0.02,0-0.035-0.003-0.049-0.009
		c-0.014-0.007-0.025-0.016-0.031-0.026C19.275,16.686,19.271,16.672,19.273,16.657z"/>
	<polygon fill="#231F20" points="19.477,16.729 19.523,16.505 19.568,16.505 19.529,16.691 19.645,16.691 19.637,16.729 	"/>
	<path fill="#231F20" d="M19.873,16.526c-0.018-0.017-0.041-0.025-0.066-0.025c-0.021,0-0.041,0.004-0.057,0.013
		s-0.029,0.021-0.041,0.035c-0.01,0.014-0.018,0.031-0.023,0.051c-0.004,0.016-0.006,0.029-0.006,0.042
		c0,0.016,0.004,0.029,0.01,0.042c0.006,0.015,0.016,0.026,0.029,0.036c0.016,0.009,0.031,0.014,0.053,0.014
		c0.023,0,0.047-0.006,0.064-0.018c0.02-0.012,0.035-0.029,0.047-0.051c0.01-0.022,0.016-0.045,0.016-0.069
		C19.898,16.567,19.891,16.545,19.873,16.526z M19.842,16.646c-0.008,0.018-0.018,0.029-0.029,0.038
		c-0.01,0.008-0.023,0.012-0.035,0.012c-0.016,0-0.029-0.005-0.037-0.016c-0.01-0.011-0.014-0.022-0.014-0.039
		c0-0.024,0.006-0.048,0.02-0.069c0.016-0.021,0.033-0.031,0.057-0.031c0.014,0,0.025,0.005,0.035,0.015s0.014,0.024,0.014,0.042
		C19.854,16.612,19.85,16.629,19.842,16.646z"/>
	<polygon fill="#231F20" points="20.123,16.729 20.076,16.729 20.07,16.565 19.99,16.729 19.941,16.729 19.934,16.505 
		19.979,16.505 19.98,16.663 20.059,16.505 20.107,16.505 20.113,16.661 20.188,16.505 20.232,16.505 	"/>
	<polygon fill="#231F20" points="21.572,16.729 21.619,16.505 21.775,16.505 21.768,16.543 21.656,16.543 21.646,16.597 
		21.754,16.597 21.746,16.634 21.639,16.634 21.617,16.729 	"/>
	<path fill="#231F20" d="M21.908,16.505h-0.051l-0.127,0.225h0.047l0.027-0.05h0.09l0.008,0.05h0.043L21.908,16.505z M21.82,16.643
		l0.053-0.09l0.014,0.09H21.82z"/>
	<path fill="#231F20" d="M21.98,16.657l0.043-0.003c0.002,0.015,0.004,0.023,0.008,0.028c0.006,0.008,0.02,0.012,0.037,0.012
		c0.014,0,0.025-0.003,0.033-0.008c0.006-0.005,0.01-0.012,0.01-0.02c0-0.007-0.002-0.013-0.008-0.018
		c-0.004-0.003-0.014-0.009-0.033-0.016c-0.018-0.008-0.029-0.014-0.037-0.019c-0.008-0.006-0.014-0.013-0.02-0.021
		c-0.004-0.008-0.006-0.018-0.006-0.028c0-0.019,0.006-0.034,0.02-0.047s0.035-0.019,0.061-0.019s0.047,0.006,0.061,0.018
		c0.014,0.014,0.021,0.029,0.025,0.05l-0.045,0.001c-0.002-0.01-0.006-0.019-0.012-0.023c-0.006-0.006-0.016-0.008-0.029-0.008
		s-0.021,0.002-0.027,0.006c-0.004,0.005-0.008,0.01-0.008,0.017c0,0.006,0.004,0.013,0.008,0.017
		c0.006,0.004,0.016,0.01,0.033,0.018c0.025,0.011,0.043,0.021,0.049,0.027c0.01,0.01,0.016,0.022,0.016,0.04
		c0,0.02-0.008,0.037-0.021,0.051c-0.018,0.014-0.039,0.021-0.066,0.021c-0.02,0-0.035-0.003-0.049-0.01s-0.025-0.016-0.031-0.027
		C21.982,16.686,21.979,16.672,21.98,16.657z"/>
	<polygon fill="#231F20" points="22.279,16.729 22.232,16.729 22.271,16.543 22.207,16.543 22.215,16.505 22.391,16.505 
		22.383,16.543 22.318,16.543 	"/>
	<path fill="#231F20" d="M29.508,9.136C29.484,9.111,29.455,9.1,29.42,9.1c-0.018,0-0.033,0.003-0.051,0.01
		c-0.016,0.007-0.033,0.018-0.053,0.032l0.008-0.034h-0.086l-0.098,0.46h0.092l0.035-0.173c0.023,0.036,0.057,0.054,0.102,0.054
		c0.043,0,0.082-0.019,0.113-0.054c0.037-0.042,0.057-0.092,0.057-0.151C29.539,9.195,29.527,9.16,29.508,9.136z M29.436,9.311
		c-0.01,0.025-0.021,0.043-0.035,0.055c-0.014,0.011-0.027,0.016-0.043,0.016c-0.018,0-0.033-0.007-0.045-0.021
		c-0.014-0.014-0.02-0.034-0.02-0.061c0-0.018,0.004-0.039,0.012-0.062s0.02-0.042,0.033-0.054s0.029-0.018,0.047-0.018
		c0.02,0,0.033,0.006,0.047,0.02c0.012,0.014,0.018,0.032,0.018,0.058C29.449,9.263,29.445,9.286,29.436,9.311z"/>
	<polygon fill="#231F20" points="29.889,9.235 29.709,9.235 29.666,9.44 29.57,9.44 29.668,8.98 29.764,8.98 29.725,9.159 
		29.906,9.159 29.943,8.98 30.039,8.98 29.941,9.44 29.846,9.44 	"/>
	<polygon fill="#231F20" points="16.057,18.9 16.288,18.438 15.827,18.438 	"/>
	<polygon fill="#231F20" points="15.741,18.438 15.972,18.9 15.51,18.9 	"/>
	<path fill="#231F20" d="M28.4,15.531l-0.184-0.208c-0.047,0.047-0.076,0.106-0.082,0.172l-0.082,0.782l0.033,0.021l0.25-0.145
		L28.4,15.531z"/>
	<path fill="#231F20" d="M29.236,16.256l0.072-0.7c0.012-0.103-0.033-0.204-0.119-0.264l-0.146,0.239l-0.064,0.625l0.215,0.125
		L29.236,16.256z"/>
	<path fill="#231F20" d="M28.969,17.361l-0.125-0.246h-0.576l-0.193,0.204c0.051,0.042,0.115,0.065,0.184,0.064h0.602
		C28.896,17.385,28.934,17.377,28.969,17.361z"/>
	<path fill="#231F20" d="M28.043,16.368l-0.072,0.699c-0.01,0.083,0.02,0.166,0.074,0.228l0.191-0.204l0.066-0.623l-0.217-0.125
		L28.043,16.368z"/>
	<path fill="#231F20" d="M28.424,15.237h0.602c0.047,0,0.092,0.013,0.133,0.033l-0.145,0.236h-0.578l-0.189-0.209
		C28.295,15.259,28.357,15.237,28.424,15.237z"/>
	<polygon fill="#231F20" points="28.125,16.319 28.373,16.177 28.936,16.177 29.154,16.303 28.906,16.445 28.342,16.445 	"/>
	<path fill="#231F20" d="M29.193,16.325l-0.248,0.143l-0.066,0.626l0.125,0.25c0.078-0.046,0.133-0.127,0.141-0.218l0.082-0.783
		L29.193,16.325z"/>
	<polygon fill="#231F20" points="23.941,19.779 23.973,19.812 24.125,19.812 24.238,19.752 24.139,19.705 23.996,19.707 
		23.945,19.754 	"/>
	<polygon fill="#231F20" points="23.994,19.646 24.02,19.387 23.939,19.128 23.879,19.709 23.928,19.709 	"/>
	<polygon fill="#231F20" points="24.109,19.174 23.99,19.064 24.664,19.064 24.521,19.174 24.449,19.174 24.428,19.15 24.213,19.15 
		24.191,19.174 	"/>
	<polygon fill="#231F20" points="24.539,19.814 24.578,19.779 24.582,19.742 24.541,19.707 24.402,19.706 24.287,19.752 
		24.361,19.812 	"/>
	<polygon fill="#231F20" points="23.869,19.811 23.807,20.395 23.941,20.121 23.967,19.885 23.908,19.811 	"/>
	<polygon fill="#231F20" points="24.305,20.368 24.326,20.346 24.408,20.348 24.527,20.457 23.861,20.455 24,20.346 24.07,20.346 
		24.092,20.368 	"/>
	<polygon fill="#231F20" points="23.482,19.65 23.508,19.406 23.645,19.12 23.58,19.709 23.541,19.706 	"/>
	<polygon fill="#231F20" points="22.93,19.646 22.953,19.387 22.873,19.128 22.814,19.709 22.861,19.709 	"/>
	<polygon fill="#231F20" points="22.803,19.811 22.742,20.395 22.877,20.121 22.902,19.885 22.844,19.811 	"/>
	<polygon fill="#231F20" points="23.238,20.368 23.262,20.346 23.342,20.348 23.461,20.457 22.795,20.455 22.936,20.346 
		23.004,20.346 23.025,20.368 	"/>
	<polygon fill="#231F20" points="23.57,19.811 23.512,20.414 23.434,20.141 23.451,19.898 23.541,19.811 	"/>
	<polygon fill="#231F20" points="22.416,19.65 22.443,19.406 22.578,19.12 22.516,19.709 22.477,19.706 	"/>
	<polygon fill="#231F20" points="22.229,19.189 22.188,19.531 22.135,19.709 22.109,19.5 22.143,19.189 	"/>
	<polygon fill="#231F20" points="21.979,19.174 21.859,19.064 22.533,19.064 22.391,19.174 22.318,19.174 22.295,19.15 22.08,19.15 
		22.061,19.174 	"/>
	<polygon fill="#231F20" points="22.174,20.368 22.195,20.346 22.277,20.348 22.396,20.457 21.73,20.455 21.869,20.346 
		21.939,20.346 21.959,20.368 	"/>
	<polygon fill="#231F20" points="22.127,19.796 22.066,19.961 22.021,20.325 22.107,20.325 22.143,20.006 	"/>
	<polygon fill="#231F20" points="22.504,19.811 22.445,20.414 22.367,20.141 22.385,19.898 22.475,19.811 	"/>
	<polygon fill="#231F20" points="19.732,19.646 19.758,19.387 19.676,19.128 19.615,19.709 19.664,19.709 	"/>
	<polygon fill="#231F20" points="19.605,19.811 19.545,20.395 19.68,20.121 19.705,19.885 19.646,19.811 	"/>
	<polygon fill="#231F20" points="20.041,20.368 20.064,20.346 20.145,20.348 20.266,20.457 19.598,20.455 19.738,20.346 
		19.807,20.346 19.828,20.368 	"/>
	<polygon fill="#231F20" points="19.219,19.65 19.244,19.406 19.383,19.12 19.318,19.709 19.277,19.706 	"/>
	<polygon fill="#231F20" points="18.614,19.779 18.645,19.812 18.799,19.812 18.91,19.752 18.811,19.705 18.668,19.707 
		18.616,19.754 	"/>
	<polygon fill="#231F20" points="18.666,19.646 18.691,19.387 18.611,19.128 18.551,19.709 18.6,19.709 	"/>
	<polygon fill="#231F20" points="18.781,19.174 18.661,19.064 19.336,19.064 19.191,19.174 19.119,19.174 19.098,19.15 
		18.883,19.15 18.863,19.174 	"/>
	<polygon fill="#231F20" points="19.211,19.814 19.248,19.779 19.252,19.742 19.213,19.707 19.072,19.706 18.959,19.752 
		19.033,19.812 	"/>
	<polygon fill="#231F20" points="18.54,19.811 18.479,20.395 18.614,20.121 18.639,19.885 18.58,19.811 	"/>
	<polygon fill="#231F20" points="19.307,19.811 19.248,20.414 19.17,20.141 19.188,19.898 19.277,19.811 	"/>
	<polygon fill="#231F20" points="17.6,19.646 17.625,19.387 17.545,19.128 17.485,19.71 17.534,19.71 	"/>
	<polygon fill="#231F20" points="17.715,19.174 17.595,19.064 18.271,19.064 18.127,19.174 18.054,19.174 18.033,19.15 
		17.818,19.15 17.798,19.174 	"/>
	<polygon fill="#231F20" points="17.474,19.811 17.413,20.395 17.548,20.121 17.573,19.885 17.514,19.811 	"/>
	<polygon fill="#231F20" points="17.91,20.368 17.932,20.346 18.013,20.348 18.133,20.457 17.466,20.455 17.606,20.346 
		17.675,20.346 17.697,20.368 	"/>
	
		<path fill="none" stroke="#231F20" stroke-width="0.25" stroke-linecap="round" stroke-linejoin="round" stroke-miterlimit="10" d="
		M30.041,13.939c0-0.001-0.002-0.001-0.002-0.001s-0.002,0-0.002,0.001s0.002,0.001,0.002,0.001S30.041,13.94,30.041,13.939z"/>
	
		<circle fill="none" stroke="#231F20" stroke-width="0.2551" stroke-linecap="round" stroke-linejoin="round" stroke-miterlimit="10" cx="30.41" cy="13.939" r="0.001"/>
</g>
<path id="face" d="M33.029,1.834c-6.682-0.434-13.385-0.434-20.066,0c-0.732,0.048-1.302,0.656-1.302,1.39v29.554
	c0,0.732,0.57,1.343,1.302,1.39c6.682,0.433,13.385,0.433,20.066,0c0.732-0.049,1.303-0.656,1.303-1.39V3.224
	C34.332,2.49,33.762,1.881,33.029,1.834z M32.525,21.189H13.467V7.518h19.058V21.189L32.525,21.189z"/>
<g id="hanna">
	<polygon fill="#D5D7D8" points="21.129,5.109 21.295,5.109 21.295,3.95 21.129,3.95 21.129,4.448 20.658,4.448 20.658,3.95 
		20.492,3.95 20.492,5.109 20.658,5.109 20.658,4.608 21.129,4.608 	"/>
	<polygon fill="#D5D7D8" points="23.338,3.95 23.338,5.109 23.172,5.109 22.561,4.235 22.561,5.109 22.395,5.109 22.395,3.95 
		22.562,3.95 23.172,4.821 23.172,3.95 	"/>
	<polygon fill="#D5D7D8" points="24.365,3.95 24.365,5.109 24.201,5.109 23.59,4.235 23.59,5.109 23.424,5.109 23.424,3.95 
		23.59,3.95 24.201,4.821 24.201,3.95 	"/>
	<path fill="#D5D7D8" d="M21.582,3.95h-0.168v1.159h0.166V4.759h0.365l0.246,0.351h0.203L21.582,3.95z M21.58,4.614V4.235
		l0.264,0.377H21.58V4.614z"/>
	<path fill="#D5D7D8" d="M24.652,3.95h-0.168v1.159h0.166V4.759h0.365l0.246,0.351h0.203L24.652,3.95z M24.65,4.614V4.235
		l0.264,0.377H24.65V4.614z"/>
</g>
<g id="edge">
	<path fill="#D5D7D8" d="M21.666,32.811c-0.059,0.07-0.146,0.114-0.244,0.114c-0.064,0-0.125-0.019-0.176-0.052l0.23-0.203v-0.001
		l0.121-0.104l0.107-0.096l0,0l0.127-0.111c-0.084-0.139-0.236-0.229-0.412-0.229c-0.266,0-0.48,0.216-0.48,0.481
		c0,0.267,0.215,0.48,0.48,0.48c0.09,0,0.174-0.023,0.244-0.066v-0.213H21.666z M21.105,32.607c0-0.174,0.141-0.315,0.314-0.315
		c0.066,0,0.125,0.021,0.176,0.054l-0.457,0.403C21.117,32.707,21.105,32.659,21.105,32.607z"/>
	<path fill="#D5D7D8" d="M24.852,32.811c-0.059,0.07-0.146,0.114-0.244,0.114c-0.064,0-0.125-0.019-0.176-0.052l0.23-0.203v-0.001
		l0.119-0.104l0.109-0.096l0,0l0.127-0.111c-0.084-0.139-0.236-0.229-0.41-0.229c-0.268,0-0.482,0.216-0.482,0.481
		c0,0.267,0.217,0.48,0.482,0.48c0.088,0,0.172-0.023,0.242-0.066v-0.213H24.852z M24.291,32.607c0-0.174,0.143-0.315,0.316-0.315
		c0.064,0,0.125,0.021,0.174,0.054l-0.459,0.403C24.303,32.707,24.291,32.659,24.291,32.607z"/>
	<path fill="#D5D7D8" d="M22.705,31.842v0.402c-0.084-0.074-0.193-0.118-0.314-0.118c-0.268,0-0.482,0.216-0.482,0.481
		c0,0.265,0.215,0.48,0.482,0.48c0.121,0,0.23-0.044,0.314-0.117v0.117h0.166v-1.247L22.705,31.842L22.705,31.842z M22.391,32.924
		c-0.176,0-0.316-0.142-0.316-0.316c0-0.174,0.143-0.315,0.316-0.315s0.314,0.142,0.314,0.315
		C22.705,32.782,22.564,32.924,22.391,32.924z"/>
	<path fill="#D5D7D8" d="M23.824,32.127v0.118c-0.084-0.073-0.195-0.118-0.314-0.118c-0.268,0-0.482,0.215-0.482,0.48
		c0,0.267,0.217,0.481,0.482,0.481c0.119,0,0.23-0.045,0.314-0.118v0.104v0.031c-0.008,0.168-0.145,0.301-0.314,0.301
		c-0.1,0-0.188-0.045-0.244-0.115v0.215c0.07,0.041,0.154,0.066,0.244,0.066c0.26,0,0.473-0.207,0.48-0.465l0,0v-0.98H23.824
		L23.824,32.127z M23.508,32.925c-0.174,0-0.316-0.142-0.316-0.315s0.143-0.316,0.316-0.316c0.17,0,0.309,0.133,0.316,0.3v0.033
		C23.816,32.792,23.678,32.925,23.508,32.925z"/>
</g>
<g id="log" class="btn">
	<path fill="#D5D7D8" d="M31.531,24.994c0.146,0,0.283,0.057,0.387,0.158c0.104,0.104,0.16,0.242,0.16,0.389v1.16
		c0,0.145-0.057,0.283-0.16,0.387c-0.102,0.102-0.24,0.16-0.387,0.16h-2.154c-0.145,0-0.283-0.059-0.387-0.16
		c-0.104-0.104-0.16-0.242-0.16-0.387v-1.16c0-0.146,0.059-0.285,0.16-0.387c0.104-0.104,0.242-0.16,0.387-0.16H31.531z"/>
	<path id="btn_3_" d="M31.531,25.126c0.109,0,0.215,0.044,0.293,0.121c0.078,0.078,0.121,0.185,0.121,0.294v1.16
		c0,0.109-0.043,0.215-0.121,0.293c-0.078,0.076-0.184,0.121-0.293,0.121h-2.154c-0.109,0-0.215-0.045-0.293-0.121
		c-0.076-0.078-0.119-0.184-0.119-0.293v-1.16c0-0.109,0.043-0.216,0.119-0.293c0.078-0.078,0.184-0.121,0.293-0.121L31.531,25.126z
		"/>
	<path fill="#D5D7D8" d="M29.883,26.359V25.88h0.121v0.39h0.188v0.09H29.883L29.883,26.359z"/>
	<path fill="#D5D7D8" d="M30.418,26.37c-0.123,0-0.207-0.06-0.207-0.226v-0.049c0-0.166,0.084-0.226,0.207-0.226
		s0.209,0.06,0.209,0.226v0.049C30.627,26.311,30.543,26.37,30.418,26.37z M30.508,26.096c0-0.1-0.031-0.131-0.09-0.131
		c-0.057,0-0.09,0.031-0.09,0.131v0.049c0,0.103,0.033,0.133,0.09,0.133s0.09-0.03,0.09-0.133V26.096z"/>
	<path fill="#D5D7D8" d="M30.9,26.37c-0.113,0-0.211-0.04-0.211-0.222v-0.058c0-0.19,0.109-0.221,0.213-0.221
		c0.072,0,0.146,0.012,0.168,0.019v0.082c-0.033-0.003-0.104-0.007-0.145-0.007c-0.074,0-0.117,0.017-0.117,0.127v0.058
		c0,0.102,0.031,0.129,0.098,0.129c0.02,0,0.039,0,0.055-0.002v-0.174h0.111v0.252C31.039,26.361,30.973,26.37,30.9,26.37z"/>
</g>
<g id="cal" class="btn">
	<path fill="#D5D7D8" d="M16.616,24.994c0.145,0,0.284,0.057,0.386,0.158c0.102,0.103,0.161,0.242,0.161,0.389v1.16
		c0,0.145-0.058,0.283-0.16,0.387c-0.102,0.102-0.242,0.16-0.387,0.16h-2.154c-0.145,0-0.284-0.059-0.386-0.16
		s-0.161-0.242-0.161-0.387v-1.16c0-0.146,0.058-0.285,0.16-0.387c0.102-0.104,0.242-0.16,0.387-0.16H16.616L16.616,24.994z"/>
	<path d="M16.616,25.127c0.11-0.001,0.215,0.043,0.292,0.121c0.078,0.077,0.122,0.184,0.122,0.293v1.16
		c0,0.109-0.043,0.215-0.121,0.293c-0.078,0.076-0.183,0.121-0.293,0.121h-2.154c-0.109,0-0.215-0.045-0.292-0.121
		c-0.078-0.078-0.122-0.184-0.122-0.293v-1.16c0-0.109,0.043-0.216,0.121-0.293c0.078-0.078,0.184-0.121,0.293-0.121H16.616z"/>
	<path fill="#D5D7D8" d="M15.169,25.957c-0.136,0-0.215-0.051-0.215-0.223V25.68c0-0.173,0.079-0.223,0.215-0.223
		c0.04,0,0.105,0.008,0.129,0.014v0.086c-0.032-0.002-0.079-0.006-0.118-0.006c-0.071,0-0.105,0.023-0.105,0.129v0.055
		c0,0.105,0.034,0.13,0.105,0.13c0.04,0,0.085-0.003,0.117-0.005v0.084C15.275,25.949,15.209,25.957,15.169,25.957z"/>
	<path fill="#D5D7D8" d="M15.661,25.945l-0.034-0.119h-0.136l-0.035,0.119h-0.124l0.133-0.479h0.187l0.134,0.479H15.661z
		 M15.576,25.613c-0.006-0.023-0.011-0.049-0.015-0.074h-0.004c-0.004,0.025-0.008,0.051-0.015,0.074l-0.034,0.126h0.103
		L15.576,25.613z"/>
	<path fill="#D5D7D8" d="M15.847,25.945v-0.479h0.121v0.389h0.187v0.09H15.847L15.847,25.945z"/>
	<path fill="#D5D7D8" d="M14.659,26.771v-0.236c0-0.028,0.001-0.051,0.003-0.078H14.66c-0.01,0.021-0.021,0.043-0.031,0.062
		l-0.061,0.111h-0.07l-0.06-0.111c-0.01-0.02-0.021-0.041-0.031-0.062h-0.001c0.001,0.027,0.001,0.05,0.001,0.078v0.236h-0.115
		v-0.478h0.118l0.093,0.17c0.01,0.019,0.021,0.038,0.03,0.06h0.001c0.01-0.021,0.02-0.041,0.03-0.061l0.093-0.169h0.118v0.478
		H14.659L14.659,26.771z"/>
	<path fill="#D5D7D8" d="M15.061,26.783c-0.124,0-0.208-0.061-0.208-0.225V26.51c0-0.166,0.085-0.226,0.208-0.226
		c0.124,0,0.208,0.06,0.208,0.226v0.049C15.269,26.725,15.185,26.783,15.061,26.783z M15.151,26.51c0-0.1-0.032-0.133-0.09-0.133
		c-0.057,0-0.089,0.033-0.089,0.133v0.049c0,0.102,0.034,0.133,0.089,0.133c0.057,0,0.09-0.031,0.09-0.133V26.51z"/>
	<path fill="#D5D7D8" d="M15.512,26.777c-0.062,0-0.103,0-0.165-0.006v-0.478c0.061-0.005,0.099-0.006,0.165-0.006
		c0.161,0,0.231,0.067,0.231,0.219v0.05C15.744,26.71,15.676,26.777,15.512,26.777z M15.626,26.508c0-0.102-0.032-0.129-0.112-0.129
		h-0.049v0.311h0.049c0.08,0,0.112-0.03,0.112-0.133V26.508z"/>
	<path fill="#D5D7D8" d="M15.822,26.771v-0.478h0.12v0.478H15.822z"/>
	<path fill="#D5D7D8" d="M16.157,26.383v0.104h0.191v0.084h-0.191v0.203h-0.121v-0.479h0.326v0.088H16.157L16.157,26.383z"/>
	<path fill="#D5D7D8" d="M16.673,26.6v0.174h-0.117V26.6l-0.16-0.305h0.123l0.064,0.127c0.01,0.021,0.022,0.049,0.03,0.072h0.003
		c0.007-0.023,0.021-0.051,0.031-0.072l0.064-0.127h0.12L16.673,26.6z"/>
</g>
<g id="up" class="btn">
	<path fill="#D5D7D8" d="M26.559,24.994c0.146,0,0.285,0.057,0.387,0.158c0.105,0.104,0.16,0.242,0.16,0.389v1.16
		c0.002,0.145-0.057,0.283-0.158,0.387c-0.104,0.102-0.242,0.16-0.389,0.16h-2.154c-0.145,0-0.283-0.059-0.387-0.16
		c-0.102-0.104-0.16-0.242-0.16-0.387v-1.16c0-0.146,0.059-0.285,0.16-0.387c0.104-0.104,0.242-0.16,0.387-0.16H26.559
		L26.559,24.994z"/>
	<path id="btn_4_" d="M26.559,25.127c0.109-0.001,0.217,0.043,0.293,0.121c0.078,0.077,0.123,0.184,0.123,0.293v1.16
		c0,0.109-0.045,0.215-0.121,0.293c-0.078,0.076-0.186,0.121-0.295,0.121h-2.154c-0.109,0-0.215-0.045-0.293-0.121
		c-0.076-0.078-0.121-0.184-0.121-0.293v-1.16c0-0.109,0.045-0.216,0.121-0.293c0.078-0.078,0.184-0.121,0.293-0.121H26.559
		L26.559,25.127z"/>
	<polygon fill="#D5D7D8" points="25.482,26.01 24.984,26.673 25.979,26.673 	"/>
	<polygon fill="#D5D7D8" points="25.482,25.568 24.902,26.342 25.068,26.342 25.482,25.789 25.896,26.342 26.062,26.342 	"/>
</g>
<g id="range" class="btn">
	<path fill="#D5D7D8" d="M21.588,24.994c0.145,0,0.283,0.057,0.387,0.158c0.104,0.103,0.16,0.242,0.16,0.389v1.16
		c0,0.145-0.057,0.283-0.16,0.387c-0.104,0.102-0.242,0.16-0.387,0.16h-2.154c-0.145,0-0.283-0.059-0.387-0.16
		s-0.16-0.242-0.16-0.387v-1.16c0-0.146,0.057-0.285,0.16-0.387c0.104-0.104,0.242-0.16,0.387-0.16H21.588L21.588,24.994z"/>
	<path id="btn_7_" d="M21.588,25.127c0.109-0.001,0.215,0.043,0.293,0.121c0.078,0.077,0.121,0.184,0.121,0.293v1.16
		c0,0.109-0.043,0.215-0.119,0.293c-0.078,0.076-0.186,0.121-0.293,0.121h-2.154c-0.111,0-0.215-0.045-0.293-0.121
		c-0.078-0.078-0.123-0.184-0.123-0.293v-1.16c0-0.109,0.043-0.216,0.121-0.293c0.078-0.078,0.184-0.121,0.293-0.121H21.588z"/>
	<path fill="#D5D7D8" d="M19.709,25.945l-0.098-0.17h-0.072v0.17h-0.115v-0.478c0.047-0.003,0.096-0.006,0.154-0.006
		c0.119,0,0.223,0.022,0.223,0.154v0.004c0,0.069-0.029,0.108-0.076,0.132l0.105,0.191h-0.121V25.945z M19.684,25.619
		c0-0.055-0.031-0.066-0.102-0.066c-0.016,0-0.027,0-0.043,0v0.139h0.045c0.07,0,0.1-0.016,0.1-0.067V25.619L19.684,25.619z"/>
	<path fill="#D5D7D8" d="M20.18,25.945l-0.033-0.119H20.01l-0.035,0.119h-0.123l0.133-0.478h0.186l0.135,0.478H20.18z
		 M20.096,25.613c-0.006-0.023-0.012-0.049-0.016-0.074h-0.006c-0.002,0.025-0.008,0.051-0.014,0.074l-0.035,0.127h0.104
		L20.096,25.613z"/>
	<path fill="#D5D7D8" d="M20.646,25.945l-0.137-0.248c-0.014-0.021-0.025-0.045-0.035-0.064l0,0c0,0.024,0.002,0.051,0.002,0.076
		v0.236h-0.109v-0.478h0.123l0.139,0.243c0.014,0.021,0.025,0.046,0.035,0.066l0,0c0-0.021-0.002-0.053-0.002-0.082v-0.229h0.109
		v0.477h-0.125V25.945z"/>
	<path fill="#D5D7D8" d="M21.061,25.957c-0.113,0-0.211-0.04-0.211-0.223v-0.058c0-0.19,0.109-0.22,0.215-0.22
		c0.07,0,0.145,0.011,0.166,0.018v0.082c-0.033-0.002-0.105-0.007-0.145-0.007c-0.074,0-0.117,0.017-0.117,0.127v0.058
		c0,0.104,0.031,0.129,0.098,0.129c0.018,0,0.039,0,0.055-0.002v-0.174h0.111v0.254C21.199,25.948,21.133,25.957,21.061,25.957z"/>
	<path fill="#D5D7D8" d="M21.318,25.945v-0.478h0.326v0.087h-0.205v0.104h0.191v0.082h-0.191v0.116h0.205v0.086h-0.326V25.945z"/>
	<polygon fill="#D5D7D8" points="20.152,26.945 20.869,26.529 20.152,26.116 	"/>
</g>
<g id="rcl" class="btn">
	<path fill="#D5D7D8" d="M31.514,28.641c0.145,0,0.283,0.058,0.387,0.158c0.104,0.104,0.16,0.242,0.16,0.389v1.16
		c0,0.146-0.059,0.283-0.16,0.387c-0.102,0.103-0.242,0.16-0.387,0.16h-2.154c-0.145,0-0.283-0.059-0.387-0.16
		c-0.104-0.104-0.16-0.241-0.16-0.387v-1.16c0-0.146,0.057-0.285,0.16-0.388c0.102-0.103,0.242-0.159,0.387-0.159H31.514z"/>
	<path id="btn_2_" d="M31.514,28.771c0.109,0,0.215,0.045,0.293,0.121c0.078,0.078,0.121,0.184,0.121,0.293v1.16
		c0,0.11-0.043,0.217-0.121,0.293c-0.078,0.077-0.184,0.121-0.293,0.121h-2.154c-0.109,0.001-0.215-0.044-0.293-0.121
		c-0.078-0.076-0.121-0.183-0.121-0.293v-1.16c0-0.109,0.043-0.215,0.121-0.293c0.078-0.076,0.184-0.121,0.293-0.121H31.514z"/>
	<path fill="#D5D7D8" d="M30.168,30.006l-0.098-0.171h-0.072v0.171h-0.115v-0.479c0.049-0.002,0.096-0.006,0.154-0.006
		c0.119,0,0.223,0.022,0.223,0.153v0.005c0,0.07-0.029,0.108-0.076,0.133l0.105,0.192L30.168,30.006L30.168,30.006z M30.143,29.678
		c0-0.054-0.031-0.066-0.104-0.066c-0.016,0-0.025,0-0.041,0.002v0.139h0.043c0.07,0,0.102-0.018,0.102-0.068V29.678L30.143,29.678z
		"/>
	<path fill="#D5D7D8" d="M30.533,30.016c-0.137,0-0.215-0.05-0.215-0.223v-0.055c0-0.172,0.078-0.221,0.215-0.221
		c0.039,0,0.105,0.006,0.129,0.014v0.085c-0.029-0.003-0.078-0.007-0.117-0.007c-0.068,0-0.104,0.024-0.104,0.129v0.055
		c0,0.105,0.035,0.13,0.104,0.13c0.039,0,0.088-0.003,0.117-0.005v0.086C30.639,30.01,30.572,30.016,30.533,30.016z"/>
	<path fill="#D5D7D8" d="M30.73,30.006v-0.479h0.121v0.388h0.188v0.091H30.73L30.73,30.006z"/>
</g>
<g id="glp" class="btn">
	<path fill="#D5D7D8" d="M16.599,28.641c0.145,0,0.284,0.058,0.387,0.158c0.103,0.104,0.16,0.242,0.16,0.389v1.16
		c0,0.146-0.058,0.283-0.16,0.387c-0.103,0.103-0.242,0.16-0.387,0.16h-2.154c-0.145,0-0.284-0.059-0.387-0.16
		c-0.103-0.104-0.16-0.241-0.16-0.387v-1.16c0-0.146,0.057-0.285,0.16-0.388s0.242-0.159,0.387-0.159H16.599z"/>
	<path id="btn_6_" d="M16.599,28.771c0.11,0,0.215,0.045,0.293,0.121c0.078,0.078,0.121,0.184,0.121,0.293v1.16
		c0,0.11-0.043,0.217-0.121,0.293c-0.078,0.077-0.183,0.121-0.293,0.121h-2.154c-0.11,0.001-0.215-0.044-0.293-0.121
		c-0.078-0.076-0.122-0.183-0.122-0.293v-1.16c0-0.109,0.043-0.215,0.121-0.293c0.078-0.076,0.184-0.121,0.293-0.121H16.599z"/>
	<path fill="#D5D7D8" d="M15.139,29.604c-0.114,0-0.211-0.041-0.211-0.223v-0.057c0-0.191,0.109-0.221,0.213-0.221
		c0.071,0,0.145,0.012,0.167,0.018v0.082c-0.034-0.002-0.106-0.006-0.145-0.006c-0.075,0-0.117,0.016-0.117,0.127v0.057
		c0,0.104,0.031,0.129,0.097,0.129c0.019,0,0.039,0,0.055-0.002v-0.174h0.112v0.254C15.277,29.594,15.21,29.604,15.139,29.604z"/>
	<path fill="#D5D7D8" d="M15.397,29.592v-0.478h0.121v0.388h0.187v0.09H15.397L15.397,29.592z"/>
	<path fill="#D5D7D8" d="M15.934,29.43c-0.016,0-0.03,0-0.049-0.002v0.164h-0.116v-0.478c0.053-0.005,0.098-0.007,0.153-0.007
		c0.125,0,0.225,0.024,0.225,0.156v0.006C16.147,29.404,16.047,29.43,15.934,29.43z M16.03,29.264
		c-0.001-0.055-0.034-0.064-0.1-0.064c-0.015,0-0.032,0.001-0.045,0.001v0.139h0.045c0.067,0,0.1-0.013,0.1-0.067V29.264z"/>
	<path fill="#D5D7D8" d="M15.106,30.43c-0.136,0-0.215-0.051-0.215-0.223V30.15c0-0.172,0.079-0.221,0.215-0.221
		c0.039,0,0.105,0.008,0.129,0.014v0.086c-0.032-0.002-0.079-0.006-0.118-0.006c-0.071,0-0.105,0.022-0.105,0.127v0.057
		c0,0.104,0.034,0.129,0.105,0.129c0.039,0,0.085-0.002,0.117-0.005v0.085C15.212,30.422,15.145,30.43,15.106,30.43z"/>
	<path fill="#D5D7D8" d="M15.423,30.029v0.104h0.192v0.083h-0.192v0.202h-0.12v-0.479h0.326v0.09H15.423L15.423,30.029z"/>
	<path fill="#D5D7D8" d="M16.068,30.418v-0.236c0-0.029,0-0.051,0.002-0.078h-0.001c-0.01,0.021-0.021,0.043-0.031,0.062
		l-0.061,0.112h-0.07l-0.06-0.112c-0.01-0.019-0.021-0.04-0.031-0.062h-0.001c0.001,0.027,0.002,0.049,0.002,0.078v0.236h-0.116
		v-0.479h0.118l0.093,0.17c0.01,0.02,0.021,0.039,0.03,0.06h0.001c0.01-0.021,0.02-0.041,0.03-0.06l0.093-0.17h0.118v0.479H16.068
		L16.068,30.418z"/>
</g>
<g id="down" class="btn">
	<path fill="#D5D7D8" d="M26.543,28.641c0.145,0,0.283,0.058,0.387,0.158c0.104,0.104,0.16,0.242,0.16,0.389v1.16
		c0,0.146-0.059,0.283-0.16,0.387c-0.102,0.103-0.242,0.16-0.387,0.16h-2.154c-0.146,0-0.283-0.059-0.389-0.16
		c-0.102-0.104-0.158-0.241-0.158-0.387v-1.16c0-0.146,0.059-0.285,0.158-0.388c0.104-0.103,0.242-0.159,0.389-0.159H26.543z"/>
	<path id="btn_1_" d="M26.543,28.771c0.109,0,0.215,0.045,0.291,0.121c0.078,0.078,0.123,0.184,0.123,0.293v1.16
		c0,0.11-0.045,0.217-0.121,0.293c-0.076,0.077-0.184,0.121-0.295,0.121h-2.152c-0.109,0.001-0.215-0.044-0.293-0.121
		c-0.078-0.076-0.121-0.183-0.121-0.293v-1.16c0-0.109,0.043-0.215,0.121-0.293c0.078-0.076,0.184-0.121,0.293-0.121H26.543z"/>
	<polygon fill="#D5D7D8" points="25.467,29.877 25.963,29.215 24.967,29.215 	"/>
	<polygon fill="#D5D7D8" points="25.467,30.318 26.045,29.546 25.879,29.546 25.467,30.098 25.051,29.546 24.885,29.546 	"/>
</g>
<g id="setup" class="btn" >
	<path fill="#D5D7D8" d="M21.57,28.641c0.145,0,0.283,0.058,0.387,0.158c0.104,0.104,0.16,0.242,0.16,0.389v1.16
		c0,0.146-0.057,0.283-0.16,0.387c-0.104,0.103-0.242,0.16-0.387,0.16h-2.154c-0.145,0-0.283-0.059-0.387-0.16
		c-0.104-0.104-0.16-0.241-0.16-0.387v-1.16c0-0.146,0.057-0.285,0.16-0.388s0.242-0.159,0.387-0.159H21.57z"/>
	<path id="btn" d="M21.57,28.771c0.109,0,0.215,0.045,0.293,0.121c0.078,0.078,0.121,0.184,0.121,0.293v1.16
		c0,0.11-0.043,0.217-0.121,0.293c-0.078,0.077-0.184,0.121-0.293,0.121h-2.154c-0.109,0.001-0.215-0.044-0.293-0.121
		c-0.078-0.076-0.121-0.183-0.121-0.293v-1.16c0-0.109,0.043-0.215,0.121-0.293c0.078-0.076,0.184-0.121,0.293-0.121H21.57z"/>
	<path fill="#D5D7D8" d="M19.613,29.604c-0.062,0-0.129-0.008-0.162-0.016v-0.079c0.043,0.003,0.086,0.009,0.148,0.009
		c0.055,0,0.078-0.018,0.078-0.053c0-0.027-0.014-0.038-0.059-0.058l-0.068-0.029c-0.068-0.028-0.111-0.063-0.111-0.144
		c0-0.094,0.066-0.131,0.188-0.131c0.064,0,0.117,0.01,0.146,0.016v0.078c-0.045-0.004-0.086-0.008-0.139-0.008
		c-0.051,0-0.076,0.01-0.076,0.043c0,0.022,0.01,0.033,0.055,0.051l0.068,0.027c0.08,0.032,0.117,0.071,0.117,0.146
		C19.797,29.557,19.73,29.604,19.613,29.604z"/>
	<path fill="#D5D7D8" d="M19.873,29.592v-0.478h0.324v0.087h-0.205v0.104h0.193v0.084h-0.193v0.115h0.205v0.087L19.873,29.592
		L19.873,29.592z"/>
	<path fill="#D5D7D8" d="M20.506,29.201v0.391h-0.121v-0.391h-0.139v-0.087h0.398v0.087H20.506z"/>
	<path fill="#D5D7D8" d="M20.906,29.604c-0.129,0-0.203-0.066-0.203-0.205v-0.283h0.119v0.279c0,0.086,0.02,0.117,0.084,0.117
		s0.084-0.031,0.084-0.117v-0.279h0.117v0.283C21.107,29.536,21.033,29.604,20.906,29.604z"/>
	<path fill="#D5D7D8" d="M21.363,29.43c-0.016,0-0.031,0-0.049-0.002v0.164h-0.117v-0.478c0.053-0.005,0.1-0.007,0.154-0.007
		c0.123,0,0.223,0.023,0.223,0.156v0.006C21.576,29.404,21.477,29.43,21.363,29.43z M21.459,29.264c0-0.055-0.033-0.064-0.1-0.064
		c-0.016,0-0.031,0.001-0.045,0.001v0.139h0.045c0.068,0,0.1-0.013,0.1-0.067V29.264z"/>
	<path fill="#D5D7D8" d="M20.129,30.43c-0.137,0-0.215-0.051-0.215-0.223V30.15c0-0.172,0.078-0.221,0.215-0.221
		c0.039,0,0.105,0.008,0.129,0.014v0.086c-0.031-0.002-0.078-0.006-0.117-0.006c-0.072,0-0.105,0.022-0.105,0.127v0.057
		c0,0.104,0.035,0.129,0.105,0.129c0.039,0,0.086-0.002,0.117-0.005v0.085C20.234,30.422,20.168,30.43,20.129,30.43z"/>
	<path fill="#D5D7D8" d="M20.324,30.418v-0.479h0.121v0.389h0.189v0.09H20.324L20.324,30.418z"/>
	<path fill="#D5D7D8" d="M20.982,30.418l-0.098-0.17h-0.072v0.17h-0.115v-0.479c0.047-0.002,0.094-0.006,0.154-0.006
		c0.121,0,0.221,0.023,0.221,0.155v0.004c0,0.07-0.027,0.108-0.076,0.132l0.107,0.192L20.982,30.418L20.982,30.418z M20.957,30.092
		c0-0.055-0.031-0.066-0.102-0.066c-0.016,0-0.027,0-0.043,0v0.14h0.045c0.07,0,0.1-0.017,0.1-0.067V30.092z"/>
</g>
</svg>
